<svg xmlns="http://www.w3.org/2000/svg" xmlns:xlink="http://www.w3.org/1999/xlink" version="1.1" id="Layer_1" x="0px" y="0px" width="173px" height="16.063px" viewBox="0 0 173 16.063" enable-background="new 0 0 173 16.063" xml:space="preserve">
<pattern x="-370.8" y="323.2" width="69" height="69" patternUnits="userSpaceOnUse" id="Polka_Dot_Pattern" viewBox="2.125 -70.896 69 69" overflow="visible">
	<g>
		<polygon fill="none" points="71.1,-1.9 2.1,-1.9 2.1,-70.9 71.1,-70.9"/>
		<polygon fill="#F7BC60" points="71.1,-1.9 2.1,-1.9 2.1,-70.9 71.1,-70.9"/>
		<g>
			<path fill="#FFFFFF" d="M61.772-71.653c0.018 0.1 0 0.127-0.026 0.19c-0.053 0.101-0.112 0.062-0.165 0.1 c-0.05 0.062-0.099 0.276-0.079 0.362c-0.169 0.058-0.01 0.227-0.015 0.35c-0.002 0.05-0.041 0.105-0.045 0.2 c-0.01 0.1 0 0.3 0.1 0.37c0.097 0.2 0.3 0.4 0.4 0.544c0.19 0.1 0.4 0.6 0.6 0.6 c0.177 0 0.384-0.104 0.543-0.143c0.18-0.043 0.4 0 0.571-0.053c0.222-0.079 0.127-0.337 0.288-0.45 c0.104-0.074 0.287-0.01 0.406-0.051c0.2-0.069 0.339-0.263 0.376-0.46c0.016-0.082 0.01-0.145 0.039-0.221 c0.039-0.103 0.111-0.16 0.09-0.293c-0.01-0.062-0.052-0.12-0.064-0.187c-0.022-0.114 0.002-0.224 0-0.337 c-0.003-0.2 0.017-0.379-0.078-0.55c-0.38-0.688-1.236-0.929-1.975-0.789c-0.18 0.034-0.287 0.126-0.442 0.2 c-0.17 0.088-0.139 0.166-0.318 0.224c-0.081 0.026-0.216 0.124-0.215 0.224c0.001 0.1 0 0.1 0 0.2 c-0.021 0.011-0.021-0.005-0.03-0.025"/>
			<path fill="#FFFFFF" d="M54.105-71.653c0.018 0.1 0 0.127-0.026 0.19c-0.053 0.101-0.112 0.062-0.165 0.1 c-0.05 0.062-0.099 0.276-0.079 0.362c-0.169 0.058-0.01 0.227-0.015 0.35c-0.002 0.05-0.041 0.105-0.045 0.2 c-0.01 0.1 0 0.3 0.1 0.37c0.097 0.2 0.3 0.4 0.4 0.544c0.19 0.1 0.4 0.6 0.6 0.6 c0.177 0 0.384-0.104 0.543-0.143c0.18-0.043 0.4 0 0.571-0.053c0.222-0.079 0.127-0.337 0.288-0.45 c0.104-0.074 0.287-0.01 0.406-0.051c0.2-0.069 0.339-0.263 0.376-0.46c0.016-0.082 0.01-0.145 0.039-0.221 c0.039-0.103 0.111-0.16 0.09-0.293c-0.01-0.062-0.052-0.12-0.064-0.187c-0.022-0.114 0.002-0.224 0-0.337 c-0.003-0.2 0.017-0.379-0.078-0.55c-0.38-0.688-1.236-0.929-1.975-0.789c-0.18 0.034-0.287 0.126-0.442 0.2 c-0.17 0.088-0.139 0.166-0.318 0.224c-0.081 0.026-0.216 0.124-0.215 0.224c0.001 0.1 0 0.1 0 0.2 c-0.021 0.011-0.021-0.005-0.03-0.025"/>
			<path fill="#FFFFFF" d="M46.439-71.653c0.018 0.1 0 0.127-0.026 0.19c-0.053 0.101-0.112 0.062-0.165 0.1 c-0.05 0.062-0.099 0.276-0.079 0.362c-0.169 0.058-0.01 0.227-0.015 0.35c-0.002 0.05-0.041 0.105-0.045 0.2 c-0.01 0.1 0 0.3 0.1 0.37c0.097 0.2 0.3 0.4 0.4 0.544c0.19 0.1 0.4 0.6 0.6 0.6 c0.177 0 0.384-0.104 0.543-0.143c0.18-0.043 0.4 0 0.571-0.053c0.222-0.079 0.127-0.337 0.288-0.45 c0.104-0.074 0.287-0.01 0.406-0.051c0.2-0.069 0.339-0.263 0.376-0.46c0.016-0.082 0.01-0.145 0.039-0.221 c0.039-0.103 0.111-0.16 0.09-0.293c-0.01-0.062-0.052-0.12-0.064-0.187c-0.022-0.114 0.002-0.224 0-0.337 c-0.003-0.2 0.017-0.379-0.078-0.55c-0.38-0.688-1.236-0.929-1.975-0.789c-0.18 0.034-0.287 0.126-0.442 0.2 c-0.17 0.088-0.139 0.166-0.318 0.224c-0.081 0.026-0.216 0.124-0.215 0.224c0.001 0.1 0 0.1 0 0.2 c-0.021 0.011-0.021-0.005-0.03-0.025"/>
			<path fill="#FFFFFF" d="M38.772-71.653c0.018 0.1 0 0.127-0.026 0.19c-0.053 0.101-0.112 0.062-0.165 0.1 c-0.05 0.062-0.099 0.276-0.079 0.362c-0.169 0.058-0.01 0.227-0.015 0.35c-0.002 0.05-0.041 0.105-0.045 0.2 c-0.01 0.1 0 0.3 0.1 0.37c0.097 0.2 0.3 0.4 0.4 0.544c0.19 0.1 0.4 0.6 0.6 0.6 c0.177 0 0.384-0.104 0.543-0.143c0.18-0.043 0.4 0 0.571-0.053c0.222-0.079 0.127-0.337 0.288-0.45 c0.104-0.074 0.287-0.01 0.406-0.051c0.2-0.069 0.339-0.263 0.376-0.46c0.016-0.082 0.01-0.145 0.039-0.221 c0.039-0.103 0.111-0.16 0.09-0.293c-0.01-0.062-0.052-0.12-0.064-0.187c-0.022-0.114 0.002-0.224 0-0.337 c-0.003-0.2 0.017-0.379-0.078-0.55c-0.38-0.688-1.236-0.929-1.975-0.789c-0.18 0.034-0.287 0.126-0.442 0.2 c-0.17 0.088-0.139 0.166-0.318 0.224c-0.081 0.026-0.216 0.124-0.215 0.224c0.001 0.1 0 0.1 0 0.2 c-0.021 0.011-0.021-0.005-0.03-0.025"/>
			<path fill="#FFFFFF" d="M31.105-71.653c0.018 0.1 0 0.127-0.026 0.19c-0.053 0.101-0.112 0.062-0.165 0.1 c-0.05 0.062-0.099 0.276-0.079 0.362c-0.169 0.058-0.01 0.227-0.015 0.35c-0.002 0.05-0.041 0.105-0.045 0.2 c-0.01 0.1 0 0.3 0.1 0.37c0.097 0.2 0.3 0.4 0.4 0.544c0.19 0.1 0.4 0.6 0.6 0.6 c0.177 0 0.384-0.104 0.543-0.143c0.18-0.043 0.4 0 0.571-0.053c0.222-0.079 0.127-0.337 0.288-0.45 c0.104-0.074 0.287-0.01 0.406-0.051c0.2-0.069 0.339-0.263 0.376-0.46c0.016-0.082 0.01-0.145 0.039-0.221 c0.039-0.103 0.111-0.16 0.09-0.293c-0.01-0.062-0.052-0.12-0.064-0.187c-0.022-0.114 0.002-0.224 0-0.337 c-0.003-0.2 0.017-0.379-0.078-0.55c-0.38-0.688-1.236-0.929-1.975-0.789c-0.18 0.034-0.287 0.126-0.442 0.2 c-0.17 0.088-0.139 0.166-0.318 0.224c-0.081 0.026-0.216 0.124-0.215 0.224c0.001 0.1 0 0.1 0 0.2 c-0.021 0.011-0.021-0.005-0.03-0.025"/>
			<path fill="#FFFFFF" d="M23.439-71.653c0.018 0.1 0 0.127-0.026 0.19c-0.053 0.101-0.112 0.062-0.165 0.1 c-0.05 0.062-0.099 0.276-0.079 0.362c-0.169 0.058-0.01 0.227-0.015 0.35c-0.002 0.05-0.041 0.105-0.045 0.2 c-0.01 0.1 0 0.3 0.1 0.37c0.097 0.2 0.3 0.4 0.4 0.544c0.19 0.1 0.4 0.6 0.6 0.6 c0.177 0 0.384-0.104 0.543-0.143c0.18-0.043 0.4 0 0.571-0.053c0.222-0.079 0.127-0.337 0.288-0.45 c0.104-0.074 0.287-0.01 0.406-0.051c0.2-0.069 0.339-0.263 0.376-0.46c0.016-0.082 0.01-0.145 0.039-0.221 c0.039-0.103 0.111-0.16 0.09-0.293c-0.01-0.062-0.052-0.12-0.064-0.187c-0.022-0.114 0.002-0.224 0-0.337 c-0.003-0.2 0.017-0.379-0.078-0.55c-0.38-0.688-1.236-0.929-1.975-0.789c-0.18 0.034-0.287 0.126-0.442 0.2 c-0.17 0.088-0.139 0.166-0.318 0.224c-0.081 0.026-0.216 0.124-0.215 0.224c0.001 0.1 0 0.1 0 0.2 c-0.021 0.011-0.021-0.005-0.03-0.025"/>
			<path fill="#FFFFFF" d="M15.772-71.653c0.018 0.1 0 0.127-0.026 0.19c-0.053 0.101-0.112 0.062-0.165 0.1 c-0.05 0.062-0.099 0.276-0.079 0.362c-0.169 0.058-0.01 0.227-0.015 0.35c-0.002 0.05-0.041 0.105-0.045 0.2 c-0.01 0.1 0 0.3 0.1 0.37c0.097 0.2 0.3 0.4 0.4 0.544c0.19 0.1 0.4 0.6 0.6 0.6 c0.177 0 0.384-0.104 0.543-0.143c0.18-0.043 0.4 0 0.571-0.053c0.222-0.079 0.127-0.337 0.288-0.45 c0.104-0.074 0.287-0.01 0.406-0.051c0.2-0.069 0.339-0.263 0.376-0.46c0.016-0.082 0.01-0.145 0.039-0.221 c0.039-0.103 0.111-0.16 0.09-0.293c-0.01-0.062-0.052-0.12-0.064-0.187c-0.022-0.114 0.002-0.224 0-0.337 c-0.003-0.2 0.017-0.379-0.078-0.55c-0.38-0.688-1.236-0.929-1.975-0.789c-0.18 0.034-0.287 0.126-0.442 0.2 c-0.17 0.088-0.139 0.166-0.318 0.224c-0.081 0.026-0.216 0.124-0.215 0.224c0.001 0.1 0 0.1 0 0.2 c-0.021 0.011-0.021-0.005-0.03-0.025"/>
			<path fill="#FFFFFF" d="M8.105-71.653c0.018 0.1 0 0.127-0.026 0.19c-0.053 0.101-0.112 0.062-0.165 0.1 c-0.05 0.062-0.099 0.276-0.079 0.362c-0.169 0.058-0.01 0.227-0.015 0.35c-0.002 0.05-0.041 0.105-0.045 0.2 c-0.01 0.1 0 0.3 0.1 0.37c0.097 0.2 0.3 0.4 0.4 0.544c0.19 0.1 0.4 0.6 0.6 0.6 c0.177 0 0.384-0.104 0.543-0.143c0.18-0.043 0.4 0 0.571-0.053c0.222-0.079 0.127-0.337 0.288-0.45 c0.104-0.074 0.287-0.01 0.406-0.051c0.2-0.069 0.339-0.263 0.376-0.46c0.016-0.082 0.01-0.145 0.039-0.221 c0.039-0.103 0.111-0.16 0.09-0.293c-0.01-0.062-0.052-0.12-0.064-0.187c-0.022-0.114 0.002-0.224 0-0.337 c-0.003-0.2 0.017-0.379-0.078-0.55c-0.38-0.688-1.236-0.929-1.975-0.789c-0.18 0.034-0.287 0.126-0.442 0.2 c-0.17 0.088-0.139 0.166-0.318 0.224c-0.081 0.026-0.216 0.124-0.215 0.224c0.001 0.1 0 0.1 0 0.2 c-0.021 0.011-0.021-0.005-0.03-0.025"/>
			<path fill="#FFFFFF" d="M0.439-71.653c0.018 0.1 0 0.127-0.026 0.19C0.361-71.362 0.3-71.4 0.248-71.335 c-0.051 0.062-0.099 0.276-0.079 0.362c-0.169 0.058-0.01 0.227-0.015 0.35c-0.002 0.05-0.041 0.105-0.045 0.2 c-0.01 0.1 0 0.3 0.1 0.37c0.097 0.2 0.3 0.4 0.4 0.544c0.19 0.1 0.4 0.6 0.6 0.6 c0.177 0 0.384-0.104 0.543-0.143c0.18-0.043 0.4 0 0.571-0.053c0.222-0.079 0.127-0.337 0.288-0.45 c0.104-0.074 0.287-0.01 0.406-0.051c0.2-0.07 0.339-0.263 0.376-0.46c0.016-0.082 0.01-0.145 0.039-0.221 c0.038-0.103 0.111-0.16 0.09-0.293c-0.01-0.062-0.051-0.12-0.064-0.187c-0.021-0.114 0.002-0.224 0-0.337 c-0.003-0.2 0.017-0.379-0.078-0.55c-0.38-0.688-1.236-0.929-1.975-0.789c-0.18 0.034-0.287 0.126-0.442 0.2 c-0.17 0.088-0.139 0.166-0.318 0.224c-0.081 0.026-0.215 0.124-0.215 0.224c0.002 0.1 0 0.1 0 0.2 c-0.021 0.011-0.021-0.005-0.03-0.025"/>
		</g>
		<g>
			<path fill="#FFFFFF" d="M69.439-71.653c0.018 0.1 0 0.127-0.026 0.19c-0.052 0.101-0.113 0.062-0.165 0.1 c-0.051 0.062-0.099 0.276-0.079 0.362c-0.169 0.058-0.01 0.227-0.015 0.35c-0.002 0.05-0.041 0.105-0.045 0.2 c-0.01 0.1 0 0.3 0.1 0.37c0.097 0.2 0.3 0.4 0.4 0.544c0.19 0.1 0.4 0.6 0.6 0.6 c0.177 0 0.384-0.104 0.543-0.143c0.18-0.043 0.4 0 0.571-0.053c0.222-0.079 0.127-0.337 0.288-0.45 c0.104-0.074 0.287-0.01 0.406-0.051c0.2-0.07 0.339-0.263 0.376-0.46c0.016-0.082 0.01-0.145 0.039-0.221 c0.038-0.103 0.111-0.16 0.09-0.293c-0.01-0.062-0.051-0.12-0.064-0.187c-0.021-0.114 0.002-0.224 0-0.337 c-0.003-0.2 0.017-0.379-0.078-0.55c-0.38-0.688-1.236-0.929-1.975-0.789c-0.18 0.034-0.287 0.126-0.442 0.2 c-0.17 0.088-0.139 0.166-0.318 0.224c-0.081 0.026-0.215 0.124-0.215 0.224c0.002 0.1 0 0.1 0 0.2 c-0.021 0.011-0.021-0.005-0.03-0.025"/>
		</g>
		<path fill="#FFFFFF" d="M0.495-71.653c0.018 0.1 0 0.127-0.026 0.19c-0.052 0.101-0.113 0.062-0.165 0.1 c-0.051 0.062-0.099 0.276-0.079 0.362c-0.169 0.058-0.01 0.227-0.015 0.35c-0.002 0.05-0.041 0.105-0.045 0.2 c-0.01 0.1 0 0.3 0.1 0.37c0.097 0.2 0.3 0.4 0.4 0.544c0.19 0.1 0.4 0.6 0.6 0.6 c0.177 0 0.384-0.104 0.543-0.143c0.18-0.043 0.4 0 0.571-0.053c0.222-0.079 0.127-0.337 0.288-0.45 c0.104-0.074 0.287-0.01 0.406-0.051c0.2-0.07 0.339-0.263 0.376-0.46c0.016-0.082 0.01-0.145 0.039-0.221 c0.038-0.103 0.111-0.16 0.09-0.293c-0.01-0.062-0.051-0.12-0.064-0.187c-0.021-0.114 0.002-0.224 0-0.337 c-0.003-0.2 0.017-0.379-0.078-0.55c-0.38-0.688-1.236-0.929-1.975-0.789c-0.18 0.034-0.287 0.126-0.442 0.2 c-0.17 0.088-0.139 0.166-0.318 0.224c-0.081 0.026-0.215 0.124-0.215 0.224C0.5-71.68 0.503-71.744 0.51-71.626 c-0.021 0.011-0.021-0.005-0.03-0.025"/>
		<g>
			<g>
				<path fill="#FFFFFF" d="M69.439-64.001c0.018 0.1 0 0.127-0.026 0.19c-0.053 0.101-0.112 0.062-0.165 0.1 c-0.05 0.062-0.099 0.276-0.079 0.362c-0.169 0.058-0.01 0.227-0.015 0.35c-0.002 0.05-0.041 0.105-0.045 0.2 c-0.01 0.1 0 0.3 0.1 0.37c0.097 0.2 0.3 0.4 0.4 0.544c0.19 0.1 0.4 0.6 0.6 0.6 c0.177 0 0.384-0.104 0.543-0.143c0.18-0.043 0.4 0 0.571-0.053c0.222-0.079 0.127-0.337 0.288-0.45 c0.104-0.074 0.287-0.01 0.406-0.051c0.2-0.069 0.339-0.263 0.376-0.46c0.016-0.082 0.01-0.145 0.039-0.221 c0.039-0.103 0.111-0.16 0.09-0.293c-0.01-0.062-0.052-0.12-0.064-0.187c-0.022-0.114 0.002-0.224 0-0.337 c-0.003-0.2 0.017-0.379-0.078-0.55c-0.38-0.688-1.236-0.929-1.975-0.789c-0.18 0.034-0.287 0.126-0.442 0.2 c-0.17 0.088-0.139 0.166-0.318 0.224c-0.081 0.026-0.216 0.124-0.215 0.224c0.001 0.1 0 0.1 0 0.2 c-0.021 0.011-0.021-0.005-0.03-0.025"/>
				<path fill="#FFFFFF" d="M61.778-64.001c0.018 0.1 0 0.127-0.026 0.19c-0.053 0.101-0.112 0.062-0.165 0.1 c-0.05 0.062-0.099 0.276-0.079 0.362c-0.169 0.058-0.009 0.227-0.015 0.35c-0.002 0.05-0.041 0.105-0.045 0.2 c-0.01 0.1 0 0.3 0.1 0.37c0.097 0.2 0.3 0.4 0.4 0.544c0.19 0.1 0.4 0.6 0.6 0.6 c0.177 0 0.384-0.104 0.543-0.143c0.18-0.043 0.4 0 0.571-0.053c0.222-0.079 0.127-0.337 0.288-0.45 c0.104-0.074 0.287-0.01 0.406-0.051c0.2-0.069 0.339-0.263 0.376-0.46c0.016-0.082 0.01-0.145 0.039-0.221 c0.039-0.103 0.111-0.16 0.09-0.293c-0.01-0.062-0.052-0.12-0.064-0.187c-0.022-0.114 0.002-0.224 0-0.337 c-0.003-0.2 0.017-0.379-0.078-0.55c-0.38-0.688-1.236-0.929-1.975-0.789c-0.18 0.034-0.287 0.126-0.442 0.2 c-0.17 0.088-0.139 0.166-0.318 0.224c-0.081 0.026-0.216 0.124-0.215 0.224c0.001 0.1 0 0.1 0 0.2 c-0.021 0.011-0.021-0.005-0.03-0.025"/>
				<path fill="#FFFFFF" d="M54.118-64.001c0.018 0.1 0 0.127-0.026 0.19c-0.053 0.101-0.112 0.062-0.165 0.1 c-0.05 0.062-0.099 0.276-0.079 0.362c-0.169 0.058-0.009 0.227-0.015 0.35c-0.002 0.05-0.041 0.105-0.045 0.2 c-0.01 0.1 0 0.3 0.1 0.37c0.097 0.2 0.3 0.4 0.4 0.544c0.19 0.1 0.4 0.6 0.6 0.6 c0.177 0 0.384-0.104 0.543-0.143c0.18-0.043 0.4 0 0.571-0.053c0.222-0.079 0.127-0.337 0.288-0.45 c0.104-0.074 0.287-0.01 0.406-0.051c0.2-0.069 0.339-0.263 0.376-0.46c0.016-0.082 0.01-0.145 0.039-0.221 c0.039-0.103 0.111-0.16 0.09-0.293c-0.01-0.062-0.052-0.12-0.064-0.187c-0.022-0.114 0.002-0.224 0-0.337 c-0.003-0.2 0.017-0.379-0.078-0.55c-0.38-0.688-1.236-0.929-1.975-0.789c-0.18 0.034-0.287 0.126-0.442 0.2 c-0.17 0.088-0.139 0.166-0.318 0.224c-0.081 0.026-0.216 0.124-0.215 0.224c0.001 0.1 0 0.1 0 0.2 c-0.021 0.011-0.021-0.005-0.03-0.025"/>
				<path fill="#FFFFFF" d="M46.458-64.001c0.018 0.1 0 0.127-0.026 0.19c-0.053 0.101-0.112 0.062-0.165 0.1 c-0.05 0.062-0.099 0.276-0.079 0.362c-0.169 0.058-0.009 0.227-0.015 0.35c-0.002 0.05-0.041 0.105-0.045 0.2 c-0.01 0.1 0 0.3 0.1 0.37c0.097 0.2 0.3 0.4 0.4 0.544c0.19 0.1 0.4 0.6 0.6 0.6 c0.177 0 0.384-0.104 0.543-0.143c0.18-0.043 0.4 0 0.571-0.053c0.222-0.079 0.127-0.337 0.288-0.45 c0.104-0.074 0.287-0.01 0.406-0.051c0.2-0.069 0.339-0.263 0.376-0.46c0.016-0.082 0.01-0.145 0.039-0.221 c0.039-0.103 0.111-0.16 0.09-0.293c-0.01-0.062-0.052-0.12-0.064-0.187c-0.022-0.114 0.002-0.224 0-0.337 c-0.003-0.2 0.017-0.379-0.078-0.55c-0.38-0.688-1.236-0.929-1.975-0.789c-0.18 0.034-0.287 0.126-0.442 0.2 c-0.17 0.088-0.139 0.166-0.318 0.224c-0.081 0.026-0.216 0.124-0.215 0.224c0.001 0.1 0 0.1 0 0.2 c-0.021 0.011-0.021-0.005-0.03-0.025"/>
				<path fill="#FFFFFF" d="M38.797-64.001c0.018 0.1 0 0.127-0.026 0.19c-0.053 0.101-0.112 0.062-0.165 0.1 c-0.05 0.062-0.099 0.276-0.079 0.362c-0.169 0.058-0.009 0.227-0.015 0.35c-0.002 0.05-0.041 0.105-0.045 0.2 c-0.01 0.1 0 0.3 0.1 0.37c0.097 0.2 0.3 0.4 0.4 0.544c0.19 0.1 0.4 0.6 0.6 0.6 c0.177 0 0.384-0.104 0.543-0.143c0.18-0.043 0.4 0 0.571-0.053c0.222-0.079 0.127-0.337 0.288-0.45 c0.104-0.074 0.287-0.01 0.406-0.051c0.2-0.069 0.339-0.263 0.376-0.46c0.016-0.082 0.01-0.145 0.039-0.221 c0.039-0.103 0.111-0.16 0.09-0.293c-0.01-0.062-0.052-0.12-0.064-0.187c-0.022-0.114 0.002-0.224 0-0.337 c-0.003-0.2 0.017-0.379-0.078-0.55c-0.38-0.688-1.236-0.929-1.975-0.789c-0.18 0.034-0.287 0.126-0.442 0.2 c-0.17 0.088-0.139 0.166-0.318 0.224c-0.081 0.026-0.216 0.124-0.215 0.224c0.001 0.1 0 0.1 0 0.2 c-0.021 0.011-0.021-0.005-0.03-0.025"/>
				<path fill="#FFFFFF" d="M31.137-64.001c0.018 0.1 0 0.127-0.026 0.19c-0.053 0.101-0.112 0.062-0.165 0.1 c-0.05 0.062-0.099 0.276-0.079 0.362c-0.169 0.058-0.009 0.227-0.015 0.35c-0.002 0.05-0.041 0.105-0.045 0.2 c-0.01 0.1 0 0.3 0.1 0.37c0.097 0.2 0.3 0.4 0.4 0.544c0.19 0.1 0.4 0.6 0.6 0.6 c0.177 0 0.384-0.104 0.543-0.143c0.18-0.043 0.4 0 0.571-0.053c0.222-0.079 0.127-0.337 0.288-0.45 c0.104-0.074 0.287-0.01 0.406-0.051c0.2-0.069 0.339-0.263 0.376-0.46c0.016-0.082 0.01-0.145 0.039-0.221 c0.039-0.103 0.111-0.16 0.09-0.293c-0.01-0.062-0.052-0.12-0.064-0.187c-0.022-0.114 0.002-0.224 0-0.337 c-0.003-0.2 0.017-0.379-0.078-0.55c-0.38-0.688-1.236-0.929-1.975-0.789c-0.18 0.034-0.287 0.126-0.442 0.2 c-0.17 0.088-0.139 0.166-0.318 0.224c-0.081 0.026-0.216 0.124-0.215 0.224c0.001 0.1 0 0.1 0 0.2 c-0.021 0.011-0.021-0.005-0.03-0.025"/>
				<path fill="#FFFFFF" d="M23.477-64.001c0.018 0.1 0 0.127-0.026 0.19c-0.053 0.101-0.112 0.062-0.165 0.1 c-0.05 0.062-0.099 0.276-0.079 0.362c-0.169 0.058-0.009 0.227-0.015 0.35c-0.002 0.05-0.041 0.105-0.045 0.2 c-0.01 0.1 0 0.3 0.1 0.37c0.097 0.2 0.3 0.4 0.4 0.544c0.19 0.1 0.4 0.6 0.6 0.6 c0.177 0 0.384-0.104 0.543-0.143c0.18-0.043 0.4 0 0.571-0.053c0.222-0.079 0.127-0.337 0.288-0.45 c0.104-0.074 0.287-0.01 0.406-0.051c0.2-0.069 0.339-0.263 0.376-0.46c0.016-0.082 0.01-0.145 0.039-0.221 c0.039-0.103 0.111-0.16 0.09-0.293c-0.01-0.062-0.052-0.12-0.064-0.187c-0.022-0.114 0.002-0.224 0-0.337 c-0.003-0.2 0.017-0.379-0.078-0.55c-0.38-0.688-1.236-0.929-1.975-0.789c-0.18 0.034-0.287 0.126-0.442 0.2 c-0.17 0.088-0.139 0.166-0.318 0.224c-0.081 0.026-0.216 0.124-0.215 0.224c0.001 0.1 0 0.1 0 0.2 c-0.021 0.011-0.021-0.005-0.03-0.025"/>
				<path fill="#FFFFFF" d="M15.816-64.001c0.018 0.1 0 0.127-0.026 0.19c-0.053 0.101-0.112 0.062-0.165 0.1 c-0.05 0.062-0.099 0.276-0.079 0.362c-0.169 0.058-0.009 0.227-0.015 0.35c-0.002 0.05-0.041 0.105-0.045 0.2 c-0.01 0.1 0 0.3 0.1 0.37c0.097 0.2 0.3 0.4 0.4 0.544c0.19 0.1 0.4 0.6 0.6 0.6 c0.177 0 0.384-0.104 0.543-0.143c0.18-0.043 0.4 0 0.571-0.053c0.222-0.079 0.127-0.337 0.288-0.45 c0.104-0.074 0.287-0.01 0.406-0.051c0.2-0.069 0.339-0.263 0.376-0.46c0.016-0.082 0.01-0.145 0.039-0.221 c0.039-0.103 0.111-0.16 0.09-0.293c-0.01-0.062-0.052-0.12-0.064-0.187c-0.022-0.114 0.002-0.224 0-0.337 c-0.003-0.2 0.017-0.379-0.078-0.55c-0.38-0.688-1.236-0.929-1.975-0.789c-0.18 0.034-0.287 0.126-0.442 0.2 c-0.17 0.088-0.139 0.166-0.318 0.224c-0.081 0.026-0.216 0.124-0.215 0.224c0.001 0.1 0 0.1 0 0.2 c-0.021 0.011-0.021-0.005-0.03-0.025"/>
				<path fill="#FFFFFF" d="M8.156-64.001c0.018 0.1 0 0.127-0.026 0.19c-0.053 0.101-0.112 0.062-0.165 0.1 c-0.05 0.062-0.099 0.276-0.079 0.362c-0.169 0.058-0.009 0.227-0.015 0.35c-0.002 0.05-0.041 0.105-0.045 0.2 c-0.01 0.1 0 0.3 0.1 0.37c0.097 0.2 0.3 0.4 0.4 0.544c0.19 0.1 0.4 0.6 0.6 0.6 c0.177 0 0.384-0.104 0.543-0.143c0.18-0.043 0.4 0 0.571-0.053c0.222-0.079 0.127-0.337 0.288-0.45 c0.104-0.074 0.287-0.01 0.406-0.051c0.2-0.069 0.339-0.263 0.376-0.46c0.016-0.082 0.01-0.145 0.039-0.221 c0.039-0.103 0.111-0.16 0.09-0.293c-0.01-0.062-0.052-0.12-0.064-0.187c-0.022-0.114 0.002-0.224 0-0.337 c-0.003-0.2 0.017-0.379-0.078-0.55c-0.38-0.688-1.236-0.929-1.975-0.789c-0.18 0.034-0.287 0.126-0.442 0.2 c-0.17 0.088-0.139 0.166-0.318 0.224c-0.081 0.026-0.216 0.124-0.215 0.224c0.001 0.1 0 0.1 0 0.2 c-0.021 0.011-0.021-0.005-0.03-0.025"/>
				<path fill="#FFFFFF" d="M0.495-64.001c0.018 0.1 0 0.127-0.026 0.19c-0.053 0.101-0.112 0.062-0.165 0.1 c-0.05 0.062-0.099 0.276-0.079 0.362c-0.169 0.058-0.01 0.227-0.015 0.35c-0.002 0.05-0.041 0.105-0.045 0.2 c-0.01 0.1 0 0.3 0.1 0.37c0.097 0.2 0.3 0.4 0.4 0.544c0.19 0.1 0.4 0.6 0.6 0.6 c0.177 0 0.384-0.104 0.543-0.143C2-61.45 2.217-61.397 2.391-61.46c0.222-0.079 0.127-0.337 0.288-0.45 c0.104-0.074 0.287-0.01 0.406-0.051c0.2-0.069 0.339-0.263 0.376-0.46c0.016-0.082 0.01-0.145 0.039-0.221 c0.039-0.103 0.111-0.16 0.09-0.293c-0.01-0.062-0.052-0.12-0.064-0.187c-0.022-0.114 0.002-0.224 0-0.337 c-0.003-0.2 0.017-0.379-0.078-0.55c-0.38-0.688-1.236-0.929-1.975-0.789c-0.18 0.034-0.287 0.126-0.442 0.2 c-0.17 0.088-0.139 0.166-0.318 0.224c-0.081 0.026-0.216 0.124-0.215 0.224c0.001 0.1 0 0.1 0 0.2 c-0.021 0.011-0.021-0.005-0.03-0.025"/>
			</g>
			<g>
				<path fill="#FFFFFF" d="M69.439-56.348c0.018 0.1 0 0.127-0.026 0.19c-0.053 0.101-0.112 0.062-0.165 0.1 c-0.05 0.062-0.099 0.276-0.079 0.362c-0.169 0.058-0.01 0.227-0.015 0.35c-0.002 0.05-0.041 0.105-0.045 0.2 c-0.01 0.1 0 0.3 0.1 0.37c0.097 0.2 0.3 0.4 0.4 0.544c0.19 0.1 0.4 0.6 0.6 0.6 c0.177 0 0.384-0.104 0.543-0.143c0.18-0.043 0.4 0 0.571-0.053c0.222-0.079 0.127-0.337 0.288-0.45 c0.104-0.074 0.287-0.01 0.406-0.051c0.2-0.069 0.339-0.263 0.376-0.46c0.016-0.082 0.01-0.145 0.039-0.221 c0.039-0.103 0.111-0.16 0.09-0.293c-0.01-0.062-0.052-0.12-0.064-0.187c-0.022-0.114 0.002-0.224 0-0.337 c-0.003-0.2 0.017-0.379-0.078-0.55c-0.38-0.688-1.236-0.929-1.975-0.789c-0.18 0.034-0.287 0.126-0.442 0.2 c-0.17 0.088-0.139 0.166-0.318 0.224c-0.081 0.026-0.216 0.124-0.215 0.224c0.001 0.1 0 0.1 0 0.2 c-0.021 0.011-0.021-0.005-0.03-0.025"/>
				<path fill="#FFFFFF" d="M61.778-56.348c0.018 0.1 0 0.127-0.026 0.19c-0.053 0.101-0.112 0.062-0.165 0.1 c-0.05 0.062-0.099 0.276-0.079 0.362c-0.169 0.058-0.009 0.227-0.015 0.35c-0.002 0.05-0.041 0.105-0.045 0.2 c-0.01 0.1 0 0.3 0.1 0.37c0.097 0.2 0.3 0.4 0.4 0.544c0.19 0.1 0.4 0.6 0.6 0.6 c0.177 0 0.384-0.104 0.543-0.143c0.18-0.043 0.4 0 0.571-0.053c0.222-0.079 0.127-0.337 0.288-0.45 c0.104-0.074 0.287-0.01 0.406-0.051c0.2-0.069 0.339-0.263 0.376-0.46c0.016-0.082 0.01-0.145 0.039-0.221 c0.039-0.103 0.111-0.16 0.09-0.293c-0.01-0.062-0.052-0.12-0.064-0.187c-0.022-0.114 0.002-0.224 0-0.337 c-0.003-0.2 0.017-0.379-0.078-0.55c-0.38-0.688-1.236-0.929-1.975-0.789c-0.18 0.034-0.287 0.126-0.442 0.2 c-0.17 0.088-0.139 0.166-0.318 0.224c-0.081 0.026-0.216 0.124-0.215 0.224c0.001 0.1 0 0.1 0 0.2 c-0.021 0.011-0.021-0.005-0.03-0.025"/>
				<path fill="#FFFFFF" d="M54.118-56.348c0.018 0.1 0 0.127-0.026 0.19c-0.053 0.101-0.112 0.062-0.165 0.1 c-0.05 0.062-0.099 0.276-0.079 0.362c-0.169 0.058-0.009 0.227-0.015 0.35c-0.002 0.05-0.041 0.105-0.045 0.2 c-0.01 0.1 0 0.3 0.1 0.37c0.097 0.2 0.3 0.4 0.4 0.544c0.19 0.1 0.4 0.6 0.6 0.6 c0.177 0 0.384-0.104 0.543-0.143c0.18-0.043 0.4 0 0.571-0.053c0.222-0.079 0.127-0.337 0.288-0.45 c0.104-0.074 0.287-0.01 0.406-0.051c0.2-0.069 0.339-0.263 0.376-0.46c0.016-0.082 0.01-0.145 0.039-0.221 c0.039-0.103 0.111-0.16 0.09-0.293c-0.01-0.062-0.052-0.12-0.064-0.187c-0.022-0.114 0.002-0.224 0-0.337 c-0.003-0.2 0.017-0.379-0.078-0.55c-0.38-0.688-1.236-0.929-1.975-0.789c-0.18 0.034-0.287 0.126-0.442 0.2 c-0.17 0.088-0.139 0.166-0.318 0.224c-0.081 0.026-0.216 0.124-0.215 0.224c0.001 0.1 0 0.1 0 0.2 c-0.021 0.011-0.021-0.005-0.03-0.025"/>
				<path fill="#FFFFFF" d="M46.458-56.348c0.018 0.1 0 0.127-0.026 0.19c-0.053 0.101-0.112 0.062-0.165 0.1 c-0.05 0.062-0.099 0.276-0.079 0.362c-0.169 0.058-0.009 0.227-0.015 0.35c-0.002 0.05-0.041 0.105-0.045 0.2 c-0.01 0.1 0 0.3 0.1 0.37c0.097 0.2 0.3 0.4 0.4 0.544c0.19 0.1 0.4 0.6 0.6 0.6 c0.177 0 0.384-0.104 0.543-0.143c0.18-0.043 0.4 0 0.571-0.053c0.222-0.079 0.127-0.337 0.288-0.45 c0.104-0.074 0.287-0.01 0.406-0.051c0.2-0.069 0.339-0.263 0.376-0.46c0.016-0.082 0.01-0.145 0.039-0.221 c0.039-0.103 0.111-0.16 0.09-0.293c-0.01-0.062-0.052-0.12-0.064-0.187c-0.022-0.114 0.002-0.224 0-0.337 c-0.003-0.2 0.017-0.379-0.078-0.55c-0.38-0.688-1.236-0.929-1.975-0.789c-0.18 0.034-0.287 0.126-0.442 0.2 c-0.17 0.088-0.139 0.166-0.318 0.224c-0.081 0.026-0.216 0.124-0.215 0.224c0.001 0.1 0 0.1 0 0.2 c-0.021 0.011-0.021-0.005-0.03-0.025"/>
				<path fill="#FFFFFF" d="M38.797-56.348c0.018 0.1 0 0.127-0.026 0.19c-0.053 0.101-0.112 0.062-0.165 0.1 c-0.05 0.062-0.099 0.276-0.079 0.362c-0.169 0.058-0.009 0.227-0.015 0.35c-0.002 0.05-0.041 0.105-0.045 0.2 c-0.01 0.1 0 0.3 0.1 0.37c0.097 0.2 0.3 0.4 0.4 0.544c0.19 0.1 0.4 0.6 0.6 0.6 c0.177 0 0.384-0.104 0.543-0.143c0.18-0.043 0.4 0 0.571-0.053c0.222-0.079 0.127-0.337 0.288-0.45 c0.104-0.074 0.287-0.01 0.406-0.051c0.2-0.069 0.339-0.263 0.376-0.46c0.016-0.082 0.01-0.145 0.039-0.221 c0.039-0.103 0.111-0.16 0.09-0.293c-0.01-0.062-0.052-0.12-0.064-0.187c-0.022-0.114 0.002-0.224 0-0.337 c-0.003-0.2 0.017-0.379-0.078-0.55c-0.38-0.688-1.236-0.929-1.975-0.789c-0.18 0.034-0.287 0.126-0.442 0.2 c-0.17 0.088-0.139 0.166-0.318 0.224c-0.081 0.026-0.216 0.124-0.215 0.224c0.001 0.1 0 0.1 0 0.2 c-0.021 0.011-0.021-0.005-0.03-0.025"/>
				<path fill="#FFFFFF" d="M31.137-56.348c0.018 0.1 0 0.127-0.026 0.19c-0.053 0.101-0.112 0.062-0.165 0.1 c-0.05 0.062-0.099 0.276-0.079 0.362c-0.169 0.058-0.009 0.227-0.015 0.35c-0.002 0.05-0.041 0.105-0.045 0.2 c-0.01 0.1 0 0.3 0.1 0.37c0.097 0.2 0.3 0.4 0.4 0.544c0.19 0.1 0.4 0.6 0.6 0.6 c0.177 0 0.384-0.104 0.543-0.143c0.18-0.043 0.4 0 0.571-0.053c0.222-0.079 0.127-0.337 0.288-0.45 c0.104-0.074 0.287-0.01 0.406-0.051c0.2-0.069 0.339-0.263 0.376-0.46c0.016-0.082 0.01-0.145 0.039-0.221 c0.039-0.103 0.111-0.16 0.09-0.293c-0.01-0.062-0.052-0.12-0.064-0.187c-0.022-0.114 0.002-0.224 0-0.337 c-0.003-0.2 0.017-0.379-0.078-0.55c-0.38-0.688-1.236-0.929-1.975-0.789c-0.18 0.034-0.287 0.126-0.442 0.2 c-0.17 0.088-0.139 0.166-0.318 0.224c-0.081 0.026-0.216 0.124-0.215 0.224c0.001 0.1 0 0.1 0 0.2 c-0.021 0.011-0.021-0.005-0.03-0.025"/>
				<path fill="#FFFFFF" d="M23.477-56.348c0.018 0.1 0 0.127-0.026 0.19c-0.053 0.101-0.112 0.062-0.165 0.1 c-0.05 0.062-0.099 0.276-0.079 0.362c-0.169 0.058-0.009 0.227-0.015 0.35c-0.002 0.05-0.041 0.105-0.045 0.2 c-0.01 0.1 0 0.3 0.1 0.37c0.097 0.2 0.3 0.4 0.4 0.544c0.19 0.1 0.4 0.6 0.6 0.6 c0.177 0 0.384-0.104 0.543-0.143c0.18-0.043 0.4 0 0.571-0.053c0.222-0.079 0.127-0.337 0.288-0.45 c0.104-0.074 0.287-0.01 0.406-0.051c0.2-0.069 0.339-0.263 0.376-0.46c0.016-0.082 0.01-0.145 0.039-0.221 c0.039-0.103 0.111-0.16 0.09-0.293c-0.01-0.062-0.052-0.12-0.064-0.187c-0.022-0.114 0.002-0.224 0-0.337 c-0.003-0.2 0.017-0.379-0.078-0.55c-0.38-0.688-1.236-0.929-1.975-0.789c-0.18 0.034-0.287 0.126-0.442 0.2 c-0.17 0.088-0.139 0.166-0.318 0.224c-0.081 0.026-0.216 0.124-0.215 0.224c0.001 0.1 0 0.1 0 0.2 c-0.021 0.011-0.021-0.005-0.03-0.025"/>
				<path fill="#FFFFFF" d="M15.816-56.348c0.018 0.1 0 0.127-0.026 0.19c-0.053 0.101-0.112 0.062-0.165 0.1 c-0.05 0.062-0.099 0.276-0.079 0.362c-0.169 0.058-0.009 0.227-0.015 0.35c-0.002 0.05-0.041 0.105-0.045 0.2 c-0.01 0.1 0 0.3 0.1 0.37c0.097 0.2 0.3 0.4 0.4 0.544c0.19 0.1 0.4 0.6 0.6 0.6 c0.177 0 0.384-0.104 0.543-0.143c0.18-0.043 0.4 0 0.571-0.053c0.222-0.079 0.127-0.337 0.288-0.45 c0.104-0.074 0.287-0.01 0.406-0.051c0.2-0.069 0.339-0.263 0.376-0.46c0.016-0.082 0.01-0.145 0.039-0.221 c0.039-0.103 0.111-0.16 0.09-0.293c-0.01-0.062-0.052-0.12-0.064-0.187c-0.022-0.114 0.002-0.224 0-0.337 c-0.003-0.2 0.017-0.379-0.078-0.55c-0.38-0.688-1.236-0.929-1.975-0.789c-0.18 0.034-0.287 0.126-0.442 0.2 c-0.17 0.088-0.139 0.166-0.318 0.224c-0.081 0.026-0.216 0.124-0.215 0.224c0.001 0.1 0 0.1 0 0.2 c-0.021 0.011-0.021-0.005-0.03-0.025"/>
				<path fill="#FFFFFF" d="M8.156-56.348c0.018 0.1 0 0.127-0.026 0.19c-0.053 0.101-0.112 0.062-0.165 0.1 c-0.05 0.062-0.099 0.276-0.079 0.362c-0.169 0.058-0.009 0.227-0.015 0.35c-0.002 0.05-0.041 0.105-0.045 0.2 c-0.01 0.1 0 0.3 0.1 0.37c0.097 0.2 0.3 0.4 0.4 0.544c0.19 0.1 0.4 0.6 0.6 0.6 c0.177 0 0.384-0.104 0.543-0.143c0.18-0.043 0.4 0 0.571-0.053c0.222-0.079 0.127-0.337 0.288-0.45 c0.104-0.074 0.287-0.01 0.406-0.051c0.2-0.069 0.339-0.263 0.376-0.46c0.016-0.082 0.01-0.145 0.039-0.221 c0.039-0.103 0.111-0.16 0.09-0.293c-0.01-0.062-0.052-0.12-0.064-0.187c-0.022-0.114 0.002-0.224 0-0.337 c-0.003-0.2 0.017-0.379-0.078-0.55c-0.38-0.688-1.236-0.929-1.975-0.789c-0.18 0.034-0.287 0.126-0.442 0.2 c-0.17 0.088-0.139 0.166-0.318 0.224c-0.081 0.026-0.216 0.124-0.215 0.224c0.001 0.1 0 0.1 0 0.2 c-0.021 0.011-0.021-0.005-0.03-0.025"/>
				<path fill="#FFFFFF" d="M0.495-56.348c0.018 0.1 0 0.127-0.026 0.19c-0.053 0.101-0.112 0.062-0.165 0.1 c-0.05 0.062-0.099 0.276-0.079 0.362c-0.169 0.058-0.01 0.227-0.015 0.35c-0.002 0.05-0.041 0.105-0.045 0.2 c-0.01 0.1 0 0.3 0.1 0.37c0.097 0.2 0.3 0.4 0.4 0.544c0.19 0.1 0.4 0.6 0.6 0.6 c0.177 0 0.384-0.104 0.543-0.143c0.18-0.043 0.4 0 0.571-0.053c0.222-0.079 0.127-0.337 0.288-0.45 c0.104-0.074 0.287-0.01 0.406-0.051c0.2-0.069 0.339-0.263 0.376-0.46c0.016-0.082 0.01-0.145 0.039-0.221 c0.039-0.103 0.111-0.16 0.09-0.293c-0.01-0.062-0.052-0.12-0.064-0.187c-0.022-0.114 0.002-0.224 0-0.337 c-0.003-0.2 0.017-0.379-0.078-0.55c-0.38-0.688-1.236-0.929-1.975-0.789c-0.18 0.034-0.287 0.126-0.442 0.2 c-0.17 0.088-0.139 0.166-0.318 0.224c-0.081 0.026-0.216 0.124-0.215 0.224C0.5-56.374 0.503-56.438 0.51-56.32 c-0.021 0.011-0.021-0.005-0.03-0.025"/>
			</g>
			<g>
				<path fill="#FFFFFF" d="M69.439-48.695c0.018 0.1 0 0.127-0.026 0.19c-0.053 0.101-0.112 0.062-0.165 0.1 c-0.05 0.062-0.099 0.276-0.079 0.362c-0.169 0.058-0.01 0.227-0.015 0.35c-0.002 0.05-0.041 0.105-0.045 0.2 c-0.01 0.1 0 0.3 0.1 0.37c0.097 0.2 0.3 0.4 0.4 0.544c0.19 0.1 0.4 0.6 0.6 0.6 c0.177 0 0.384-0.104 0.543-0.143c0.18-0.043 0.4 0 0.571-0.053c0.222-0.079 0.127-0.337 0.288-0.45 c0.104-0.074 0.287-0.01 0.406-0.051c0.2-0.069 0.339-0.263 0.376-0.46c0.016-0.082 0.01-0.145 0.039-0.221 c0.039-0.103 0.111-0.16 0.09-0.293c-0.01-0.062-0.052-0.12-0.064-0.187c-0.022-0.114 0.002-0.224 0-0.337 c-0.003-0.2 0.017-0.379-0.078-0.55c-0.38-0.688-1.236-0.929-1.975-0.789c-0.18 0.034-0.287 0.126-0.442 0.2 c-0.17 0.088-0.139 0.166-0.318 0.224c-0.081 0.026-0.216 0.124-0.215 0.224c0.001 0.1 0 0.1 0 0.2 c-0.021 0.011-0.021-0.005-0.03-0.025"/>
				<path fill="#FFFFFF" d="M61.778-48.695c0.018 0.1 0 0.127-0.026 0.19c-0.053 0.101-0.112 0.062-0.165 0.1 c-0.05 0.062-0.099 0.276-0.079 0.362c-0.169 0.058-0.009 0.227-0.015 0.35c-0.002 0.05-0.041 0.105-0.045 0.2 c-0.01 0.1 0 0.3 0.1 0.37c0.097 0.2 0.3 0.4 0.4 0.544c0.19 0.1 0.4 0.6 0.6 0.6 c0.177 0 0.384-0.104 0.543-0.143c0.18-0.043 0.4 0 0.571-0.053c0.222-0.079 0.127-0.337 0.288-0.45 c0.104-0.074 0.287-0.01 0.406-0.051c0.2-0.069 0.339-0.263 0.376-0.46c0.016-0.082 0.01-0.145 0.039-0.221 c0.039-0.103 0.111-0.16 0.09-0.293c-0.01-0.062-0.052-0.12-0.064-0.187c-0.022-0.114 0.002-0.224 0-0.337 c-0.003-0.2 0.017-0.379-0.078-0.55c-0.38-0.688-1.236-0.929-1.975-0.789c-0.18 0.034-0.287 0.126-0.442 0.2 c-0.17 0.088-0.139 0.166-0.318 0.224c-0.081 0.026-0.216 0.124-0.215 0.224c0.001 0.1 0 0.1 0 0.2 c-0.021 0.011-0.021-0.005-0.03-0.025"/>
				<path fill="#FFFFFF" d="M54.118-48.695c0.018 0.1 0 0.127-0.026 0.19c-0.053 0.101-0.112 0.062-0.165 0.1 c-0.05 0.062-0.099 0.276-0.079 0.362c-0.169 0.058-0.009 0.227-0.015 0.35c-0.002 0.05-0.041 0.105-0.045 0.2 c-0.01 0.1 0 0.3 0.1 0.37c0.097 0.2 0.3 0.4 0.4 0.544c0.19 0.1 0.4 0.6 0.6 0.6 c0.177 0 0.384-0.104 0.543-0.143c0.18-0.043 0.4 0 0.571-0.053c0.222-0.079 0.127-0.337 0.288-0.45 c0.104-0.074 0.287-0.01 0.406-0.051c0.2-0.069 0.339-0.263 0.376-0.46c0.016-0.082 0.01-0.145 0.039-0.221 c0.039-0.103 0.111-0.16 0.09-0.293c-0.01-0.062-0.052-0.12-0.064-0.187c-0.022-0.114 0.002-0.224 0-0.337 c-0.003-0.2 0.017-0.379-0.078-0.55c-0.38-0.688-1.236-0.929-1.975-0.789c-0.18 0.034-0.287 0.126-0.442 0.2 c-0.17 0.088-0.139 0.166-0.318 0.224c-0.081 0.026-0.216 0.124-0.215 0.224c0.001 0.1 0 0.1 0 0.2 c-0.021 0.011-0.021-0.005-0.03-0.025"/>
				<path fill="#FFFFFF" d="M46.458-48.695c0.018 0.1 0 0.127-0.026 0.19c-0.053 0.101-0.112 0.062-0.165 0.1 c-0.05 0.062-0.099 0.276-0.079 0.362c-0.169 0.058-0.009 0.227-0.015 0.35c-0.002 0.05-0.041 0.105-0.045 0.2 c-0.01 0.1 0 0.3 0.1 0.37c0.097 0.2 0.3 0.4 0.4 0.544c0.19 0.1 0.4 0.6 0.6 0.6 c0.177 0 0.384-0.104 0.543-0.143c0.18-0.043 0.4 0 0.571-0.053c0.222-0.079 0.127-0.337 0.288-0.45 c0.104-0.074 0.287-0.01 0.406-0.051c0.2-0.069 0.339-0.263 0.376-0.46c0.016-0.082 0.01-0.145 0.039-0.221 c0.039-0.103 0.111-0.16 0.09-0.293c-0.01-0.062-0.052-0.12-0.064-0.187c-0.022-0.114 0.002-0.224 0-0.337 c-0.003-0.2 0.017-0.379-0.078-0.55c-0.38-0.688-1.236-0.929-1.975-0.789c-0.18 0.034-0.287 0.126-0.442 0.2 c-0.17 0.088-0.139 0.166-0.318 0.224c-0.081 0.026-0.216 0.124-0.215 0.224c0.001 0.1 0 0.1 0 0.2 c-0.021 0.011-0.021-0.005-0.03-0.025"/>
				<path fill="#FFFFFF" d="M38.797-48.695c0.018 0.1 0 0.127-0.026 0.19c-0.053 0.101-0.112 0.062-0.165 0.1 c-0.05 0.062-0.099 0.276-0.079 0.362c-0.169 0.058-0.009 0.227-0.015 0.35c-0.002 0.05-0.041 0.105-0.045 0.2 c-0.01 0.1 0 0.3 0.1 0.37c0.097 0.2 0.3 0.4 0.4 0.544c0.19 0.1 0.4 0.6 0.6 0.6 c0.177 0 0.384-0.104 0.543-0.143c0.18-0.043 0.4 0 0.571-0.053c0.222-0.079 0.127-0.337 0.288-0.45 c0.104-0.074 0.287-0.01 0.406-0.051c0.2-0.069 0.339-0.263 0.376-0.46c0.016-0.082 0.01-0.145 0.039-0.221 c0.039-0.103 0.111-0.16 0.09-0.293c-0.01-0.062-0.052-0.12-0.064-0.187c-0.022-0.114 0.002-0.224 0-0.337 c-0.003-0.2 0.017-0.379-0.078-0.55c-0.38-0.688-1.236-0.929-1.975-0.789c-0.18 0.034-0.287 0.126-0.442 0.2 c-0.17 0.088-0.139 0.166-0.318 0.224c-0.081 0.026-0.216 0.124-0.215 0.224c0.001 0.1 0 0.1 0 0.2 c-0.021 0.011-0.021-0.005-0.03-0.025"/>
				<path fill="#FFFFFF" d="M31.137-48.695c0.018 0.1 0 0.127-0.026 0.19c-0.053 0.101-0.112 0.062-0.165 0.1 c-0.05 0.062-0.099 0.276-0.079 0.362c-0.169 0.058-0.009 0.227-0.015 0.35c-0.002 0.05-0.041 0.105-0.045 0.2 c-0.01 0.1 0 0.3 0.1 0.37c0.097 0.2 0.3 0.4 0.4 0.544c0.19 0.1 0.4 0.6 0.6 0.6 c0.177 0 0.384-0.104 0.543-0.143c0.18-0.043 0.4 0 0.571-0.053c0.222-0.079 0.127-0.337 0.288-0.45 c0.104-0.074 0.287-0.01 0.406-0.051c0.2-0.069 0.339-0.263 0.376-0.46c0.016-0.082 0.01-0.145 0.039-0.221 c0.039-0.103 0.111-0.16 0.09-0.293c-0.01-0.062-0.052-0.12-0.064-0.187c-0.022-0.114 0.002-0.224 0-0.337 c-0.003-0.2 0.017-0.379-0.078-0.55c-0.38-0.688-1.236-0.929-1.975-0.789c-0.18 0.034-0.287 0.126-0.442 0.2 c-0.17 0.088-0.139 0.166-0.318 0.224c-0.081 0.026-0.216 0.124-0.215 0.224c0.001 0.1 0 0.1 0 0.2 c-0.021 0.011-0.021-0.005-0.03-0.025"/>
				<path fill="#FFFFFF" d="M23.477-48.695c0.018 0.1 0 0.127-0.026 0.19c-0.053 0.101-0.112 0.062-0.165 0.1 c-0.05 0.062-0.099 0.276-0.079 0.362c-0.169 0.058-0.009 0.227-0.015 0.35c-0.002 0.05-0.041 0.105-0.045 0.2 c-0.01 0.1 0 0.3 0.1 0.37c0.097 0.2 0.3 0.4 0.4 0.544c0.19 0.1 0.4 0.6 0.6 0.6 c0.177 0 0.384-0.104 0.543-0.143c0.18-0.043 0.4 0 0.571-0.053c0.222-0.079 0.127-0.337 0.288-0.45 c0.104-0.074 0.287-0.01 0.406-0.051c0.2-0.069 0.339-0.263 0.376-0.46c0.016-0.082 0.01-0.145 0.039-0.221 c0.039-0.103 0.111-0.16 0.09-0.293c-0.01-0.062-0.052-0.12-0.064-0.187c-0.022-0.114 0.002-0.224 0-0.337 c-0.003-0.2 0.017-0.379-0.078-0.55c-0.38-0.688-1.236-0.929-1.975-0.789c-0.18 0.034-0.287 0.126-0.442 0.2 c-0.17 0.088-0.139 0.166-0.318 0.224c-0.081 0.026-0.216 0.124-0.215 0.224c0.001 0.1 0 0.1 0 0.2 c-0.021 0.011-0.021-0.005-0.03-0.025"/>
				<path fill="#FFFFFF" d="M15.816-48.695c0.018 0.1 0 0.127-0.026 0.19c-0.053 0.101-0.112 0.062-0.165 0.1 c-0.05 0.062-0.099 0.276-0.079 0.362c-0.169 0.058-0.009 0.227-0.015 0.35c-0.002 0.05-0.041 0.105-0.045 0.2 c-0.01 0.1 0 0.3 0.1 0.37c0.097 0.2 0.3 0.4 0.4 0.544c0.19 0.1 0.4 0.6 0.6 0.6 c0.177 0 0.384-0.104 0.543-0.143c0.18-0.043 0.4 0 0.571-0.053c0.222-0.079 0.127-0.337 0.288-0.45 c0.104-0.074 0.287-0.01 0.406-0.051c0.2-0.069 0.339-0.263 0.376-0.46c0.016-0.082 0.01-0.145 0.039-0.221 c0.039-0.103 0.111-0.16 0.09-0.293c-0.01-0.062-0.052-0.12-0.064-0.187c-0.022-0.114 0.002-0.224 0-0.337 c-0.003-0.2 0.017-0.379-0.078-0.55c-0.38-0.688-1.236-0.929-1.975-0.789c-0.18 0.034-0.287 0.126-0.442 0.2 c-0.17 0.088-0.139 0.166-0.318 0.224c-0.081 0.026-0.216 0.124-0.215 0.224c0.001 0.1 0 0.1 0 0.2 c-0.021 0.011-0.021-0.005-0.03-0.025"/>
				<path fill="#FFFFFF" d="M8.156-48.695c0.018 0.1 0 0.127-0.026 0.19c-0.053 0.101-0.112 0.062-0.165 0.1 c-0.05 0.062-0.099 0.276-0.079 0.362c-0.169 0.058-0.009 0.227-0.015 0.35c-0.002 0.05-0.041 0.105-0.045 0.2 c-0.01 0.1 0 0.3 0.1 0.37c0.097 0.2 0.3 0.4 0.4 0.544c0.19 0.1 0.4 0.6 0.6 0.6 c0.177 0 0.384-0.104 0.543-0.143c0.18-0.043 0.4 0 0.571-0.053c0.222-0.079 0.127-0.337 0.288-0.45 c0.104-0.074 0.287-0.01 0.406-0.051c0.2-0.069 0.339-0.263 0.376-0.46c0.016-0.082 0.01-0.145 0.039-0.221 c0.039-0.103 0.111-0.16 0.09-0.293c-0.01-0.062-0.052-0.12-0.064-0.187c-0.022-0.114 0.002-0.224 0-0.337 c-0.003-0.2 0.017-0.379-0.078-0.55c-0.38-0.688-1.236-0.929-1.975-0.789c-0.18 0.034-0.287 0.126-0.442 0.2 c-0.17 0.088-0.139 0.166-0.318 0.224c-0.081 0.026-0.216 0.124-0.215 0.224c0.001 0.1 0 0.1 0 0.2 c-0.021 0.011-0.021-0.005-0.03-0.025"/>
				<path fill="#FFFFFF" d="M0.495-48.695c0.018 0.1 0 0.127-0.026 0.19c-0.053 0.101-0.112 0.062-0.165 0.1 c-0.05 0.062-0.099 0.276-0.079 0.362c-0.169 0.058-0.01 0.227-0.015 0.35c-0.002 0.05-0.041 0.105-0.045 0.2 c-0.01 0.1 0 0.3 0.1 0.37c0.097 0.2 0.3 0.4 0.4 0.544c0.19 0.1 0.4 0.6 0.6 0.6 c0.177 0 0.384-0.104 0.543-0.143c0.18-0.043 0.4 0 0.571-0.053c0.222-0.079 0.127-0.337 0.288-0.45 c0.104-0.074 0.287-0.01 0.406-0.051c0.2-0.069 0.339-0.263 0.376-0.46c0.016-0.082 0.01-0.145 0.039-0.221 c0.039-0.103 0.111-0.16 0.09-0.293c-0.01-0.062-0.052-0.12-0.064-0.187c-0.022-0.114 0.002-0.224 0-0.337 c-0.003-0.2 0.017-0.379-0.078-0.55c-0.38-0.688-1.236-0.929-1.975-0.789c-0.18 0.034-0.287 0.126-0.442 0.2 c-0.17 0.088-0.139 0.166-0.318 0.224c-0.081 0.026-0.216 0.124-0.215 0.224c0.001 0.1 0 0.1 0 0.2 c-0.021 0.011-0.021-0.005-0.03-0.025"/>
			</g>
			<g>
				<path fill="#FFFFFF" d="M69.439-41.042c0.018 0.1 0 0.127-0.026 0.19c-0.053 0.101-0.112 0.062-0.165 0.1 c-0.05 0.062-0.099 0.276-0.079 0.362c-0.169 0.058-0.01 0.227-0.015 0.35c-0.002 0.05-0.041 0.105-0.045 0.2 c-0.01 0.1 0 0.3 0.1 0.37c0.097 0.2 0.3 0.4 0.4 0.544c0.19 0.1 0.4 0.6 0.6 0.6 c0.177 0 0.384-0.104 0.543-0.143c0.18-0.043 0.4 0 0.571-0.053c0.222-0.079 0.127-0.337 0.288-0.45 c0.104-0.074 0.287-0.01 0.406-0.051c0.2-0.069 0.339-0.263 0.376-0.46c0.016-0.082 0.01-0.145 0.039-0.221 c0.039-0.103 0.111-0.16 0.09-0.293c-0.01-0.062-0.052-0.12-0.064-0.187c-0.022-0.114 0.002-0.224 0-0.337 c-0.003-0.2 0.017-0.379-0.078-0.55c-0.38-0.688-1.236-0.929-1.975-0.789c-0.18 0.034-0.287 0.126-0.442 0.2 c-0.17 0.088-0.139 0.166-0.318 0.224c-0.081 0.026-0.216 0.124-0.215 0.224c0.001 0.1 0 0.1 0 0.2 c-0.021 0.011-0.021-0.005-0.03-0.025"/>
				<path fill="#FFFFFF" d="M61.778-41.042c0.018 0.1 0 0.127-0.026 0.19c-0.053 0.101-0.112 0.062-0.165 0.1 c-0.05 0.062-0.099 0.276-0.079 0.362c-0.169 0.058-0.009 0.227-0.015 0.35c-0.002 0.05-0.041 0.105-0.045 0.2 c-0.01 0.1 0 0.3 0.1 0.37c0.097 0.2 0.3 0.4 0.4 0.544c0.19 0.1 0.4 0.6 0.6 0.6 c0.177 0 0.384-0.104 0.543-0.143c0.18-0.043 0.4 0 0.571-0.053c0.222-0.079 0.127-0.337 0.288-0.45 c0.104-0.074 0.287-0.01 0.406-0.051c0.2-0.069 0.339-0.263 0.376-0.46c0.016-0.082 0.01-0.145 0.039-0.221 c0.039-0.103 0.111-0.16 0.09-0.293c-0.01-0.062-0.052-0.12-0.064-0.187c-0.022-0.114 0.002-0.224 0-0.337 c-0.003-0.2 0.017-0.379-0.078-0.55c-0.38-0.688-1.236-0.929-1.975-0.789c-0.18 0.034-0.287 0.126-0.442 0.2 c-0.17 0.088-0.139 0.166-0.318 0.224c-0.081 0.026-0.216 0.124-0.215 0.224c0.001 0.1 0 0.1 0 0.2 c-0.021 0.011-0.021-0.005-0.03-0.025"/>
				<path fill="#FFFFFF" d="M54.118-41.042c0.018 0.1 0 0.127-0.026 0.19c-0.053 0.101-0.112 0.062-0.165 0.1 c-0.05 0.062-0.099 0.276-0.079 0.362c-0.169 0.058-0.009 0.227-0.015 0.35c-0.002 0.05-0.041 0.105-0.045 0.2 c-0.01 0.1 0 0.3 0.1 0.37c0.097 0.2 0.3 0.4 0.4 0.544c0.19 0.1 0.4 0.6 0.6 0.6 c0.177 0 0.384-0.104 0.543-0.143c0.18-0.043 0.4 0 0.571-0.053c0.222-0.079 0.127-0.337 0.288-0.45 c0.104-0.074 0.287-0.01 0.406-0.051c0.2-0.069 0.339-0.263 0.376-0.46c0.016-0.082 0.01-0.145 0.039-0.221 c0.039-0.103 0.111-0.16 0.09-0.293c-0.01-0.062-0.052-0.12-0.064-0.187c-0.022-0.114 0.002-0.224 0-0.337 c-0.003-0.2 0.017-0.379-0.078-0.55c-0.38-0.688-1.236-0.929-1.975-0.789c-0.18 0.034-0.287 0.126-0.442 0.2 c-0.17 0.088-0.139 0.166-0.318 0.224c-0.081 0.026-0.216 0.124-0.215 0.224c0.001 0.1 0 0.1 0 0.2 c-0.021 0.011-0.021-0.005-0.03-0.025"/>
				<path fill="#FFFFFF" d="M46.458-41.042c0.018 0.1 0 0.127-0.026 0.19c-0.053 0.101-0.112 0.062-0.165 0.1 c-0.05 0.062-0.099 0.276-0.079 0.362c-0.169 0.058-0.009 0.227-0.015 0.35c-0.002 0.05-0.041 0.105-0.045 0.2 c-0.01 0.1 0 0.3 0.1 0.37c0.097 0.2 0.3 0.4 0.4 0.544c0.19 0.1 0.4 0.6 0.6 0.6 c0.177 0 0.384-0.104 0.543-0.143c0.18-0.043 0.4 0 0.571-0.053c0.222-0.079 0.127-0.337 0.288-0.45 c0.104-0.074 0.287-0.01 0.406-0.051c0.2-0.069 0.339-0.263 0.376-0.46c0.016-0.082 0.01-0.145 0.039-0.221 c0.039-0.103 0.111-0.16 0.09-0.293c-0.01-0.062-0.052-0.12-0.064-0.187c-0.022-0.114 0.002-0.224 0-0.337 c-0.003-0.2 0.017-0.379-0.078-0.55c-0.38-0.688-1.236-0.929-1.975-0.789c-0.18 0.034-0.287 0.126-0.442 0.2 c-0.17 0.088-0.139 0.166-0.318 0.224c-0.081 0.026-0.216 0.124-0.215 0.224c0.001 0.1 0 0.1 0 0.2 c-0.021 0.011-0.021-0.005-0.03-0.025"/>
				<path fill="#FFFFFF" d="M38.797-41.042c0.018 0.1 0 0.127-0.026 0.19c-0.053 0.101-0.112 0.062-0.165 0.1 c-0.05 0.062-0.099 0.276-0.079 0.362c-0.169 0.058-0.009 0.227-0.015 0.35c-0.002 0.05-0.041 0.105-0.045 0.2 c-0.01 0.1 0 0.3 0.1 0.37c0.097 0.2 0.3 0.4 0.4 0.544c0.19 0.1 0.4 0.6 0.6 0.6 c0.177 0 0.384-0.104 0.543-0.143c0.18-0.043 0.4 0 0.571-0.053c0.222-0.079 0.127-0.337 0.288-0.45 c0.104-0.074 0.287-0.01 0.406-0.051c0.2-0.069 0.339-0.263 0.376-0.46c0.016-0.082 0.01-0.145 0.039-0.221 c0.039-0.103 0.111-0.16 0.09-0.293c-0.01-0.062-0.052-0.12-0.064-0.187c-0.022-0.114 0.002-0.224 0-0.337 c-0.003-0.2 0.017-0.379-0.078-0.55c-0.38-0.688-1.236-0.929-1.975-0.789c-0.18 0.034-0.287 0.126-0.442 0.2 c-0.17 0.088-0.139 0.166-0.318 0.224c-0.081 0.026-0.216 0.124-0.215 0.224c0.001 0.1 0 0.1 0 0.2 c-0.021 0.011-0.021-0.005-0.03-0.025"/>
				<path fill="#FFFFFF" d="M31.137-41.042c0.018 0.1 0 0.127-0.026 0.19c-0.053 0.101-0.112 0.062-0.165 0.1 c-0.05 0.062-0.099 0.276-0.079 0.362c-0.169 0.058-0.009 0.227-0.015 0.35c-0.002 0.05-0.041 0.105-0.045 0.2 c-0.01 0.1 0 0.3 0.1 0.37c0.097 0.2 0.3 0.4 0.4 0.544c0.19 0.1 0.4 0.6 0.6 0.6 c0.177 0 0.384-0.104 0.543-0.143c0.18-0.043 0.4 0 0.571-0.053c0.222-0.079 0.127-0.337 0.288-0.45 c0.104-0.074 0.287-0.01 0.406-0.051c0.2-0.069 0.339-0.263 0.376-0.46c0.016-0.082 0.01-0.145 0.039-0.221 c0.039-0.103 0.111-0.16 0.09-0.293c-0.01-0.062-0.052-0.12-0.064-0.187c-0.022-0.114 0.002-0.224 0-0.337 c-0.003-0.2 0.017-0.379-0.078-0.55c-0.38-0.688-1.236-0.929-1.975-0.789c-0.18 0.034-0.287 0.126-0.442 0.2 c-0.17 0.088-0.139 0.166-0.318 0.224c-0.081 0.026-0.216 0.124-0.215 0.224c0.001 0.1 0 0.1 0 0.2 c-0.021 0.011-0.021-0.005-0.03-0.025"/>
				<path fill="#FFFFFF" d="M23.477-41.042c0.018 0.1 0 0.127-0.026 0.19c-0.053 0.101-0.112 0.062-0.165 0.1 c-0.05 0.062-0.099 0.276-0.079 0.362c-0.169 0.058-0.009 0.227-0.015 0.35c-0.002 0.05-0.041 0.105-0.045 0.2 c-0.01 0.1 0 0.3 0.1 0.37c0.097 0.2 0.3 0.4 0.4 0.544c0.19 0.1 0.4 0.6 0.6 0.6 c0.177 0 0.384-0.104 0.543-0.143c0.18-0.043 0.4 0 0.571-0.053c0.222-0.079 0.127-0.337 0.288-0.45 c0.104-0.074 0.287-0.01 0.406-0.051c0.2-0.069 0.339-0.263 0.376-0.46c0.016-0.082 0.01-0.145 0.039-0.221 c0.039-0.103 0.111-0.16 0.09-0.293c-0.01-0.062-0.052-0.12-0.064-0.187c-0.022-0.114 0.002-0.224 0-0.337 c-0.003-0.2 0.017-0.379-0.078-0.55c-0.38-0.688-1.236-0.929-1.975-0.789c-0.18 0.034-0.287 0.126-0.442 0.2 c-0.17 0.088-0.139 0.166-0.318 0.224c-0.081 0.026-0.216 0.124-0.215 0.224c0.001 0.1 0 0.1 0 0.2 c-0.021 0.011-0.021-0.005-0.03-0.025"/>
				<path fill="#FFFFFF" d="M15.816-41.042c0.018 0.1 0 0.127-0.026 0.19c-0.053 0.101-0.112 0.062-0.165 0.1 c-0.05 0.062-0.099 0.276-0.079 0.362c-0.169 0.058-0.009 0.227-0.015 0.35c-0.002 0.05-0.041 0.105-0.045 0.2 c-0.01 0.1 0 0.3 0.1 0.37c0.097 0.2 0.3 0.4 0.4 0.544c0.19 0.1 0.4 0.6 0.6 0.6 c0.177 0 0.384-0.104 0.543-0.143c0.18-0.043 0.4 0 0.571-0.053c0.222-0.079 0.127-0.337 0.288-0.45 c0.104-0.074 0.287-0.01 0.406-0.051c0.2-0.069 0.339-0.263 0.376-0.46c0.016-0.082 0.01-0.145 0.039-0.221 c0.039-0.103 0.111-0.16 0.09-0.293c-0.01-0.062-0.052-0.12-0.064-0.187c-0.022-0.114 0.002-0.224 0-0.337 c-0.003-0.2 0.017-0.379-0.078-0.55c-0.38-0.688-1.236-0.929-1.975-0.789c-0.18 0.034-0.287 0.126-0.442 0.2 c-0.17 0.088-0.139 0.166-0.318 0.224c-0.081 0.026-0.216 0.124-0.215 0.224c0.001 0.1 0 0.1 0 0.2 c-0.021 0.011-0.021-0.005-0.03-0.025"/>
				<path fill="#FFFFFF" d="M8.156-41.042c0.018 0.1 0 0.127-0.026 0.19c-0.053 0.101-0.112 0.062-0.165 0.1 c-0.05 0.062-0.099 0.276-0.079 0.362c-0.169 0.058-0.009 0.227-0.015 0.35c-0.002 0.05-0.041 0.105-0.045 0.2 c-0.01 0.1 0 0.3 0.1 0.37c0.097 0.2 0.3 0.4 0.4 0.544c0.19 0.1 0.4 0.6 0.6 0.6 c0.177 0 0.384-0.104 0.543-0.143c0.18-0.043 0.4 0 0.571-0.053c0.222-0.079 0.127-0.337 0.288-0.45 c0.104-0.074 0.287-0.01 0.406-0.051c0.2-0.069 0.339-0.263 0.376-0.46c0.016-0.082 0.01-0.145 0.039-0.221 c0.039-0.103 0.111-0.16 0.09-0.293c-0.01-0.062-0.052-0.12-0.064-0.187c-0.022-0.114 0.002-0.224 0-0.337 c-0.003-0.2 0.017-0.379-0.078-0.55c-0.38-0.688-1.236-0.929-1.975-0.789c-0.18 0.034-0.287 0.126-0.442 0.2 c-0.17 0.088-0.139 0.166-0.318 0.224c-0.081 0.026-0.216 0.124-0.215 0.224c0.001 0.1 0 0.1 0 0.2 C8.15-41.004 8.149-41.02 8.14-41.04"/>
				<path fill="#FFFFFF" d="M0.495-41.042c0.018 0.1 0 0.127-0.026 0.19c-0.053 0.101-0.112 0.062-0.165 0.1 c-0.05 0.062-0.099 0.276-0.079 0.362c-0.169 0.058-0.01 0.227-0.015 0.35c-0.002 0.05-0.041 0.105-0.045 0.2 c-0.01 0.1 0 0.3 0.1 0.37c0.097 0.2 0.3 0.4 0.4 0.544c0.19 0.1 0.4 0.6 0.6 0.6 c0.177 0 0.384-0.104 0.543-0.143c0.18-0.043 0.4 0 0.571-0.053c0.222-0.079 0.127-0.337 0.288-0.45 c0.104-0.074 0.287-0.01 0.406-0.051c0.2-0.069 0.339-0.263 0.376-0.46c0.016-0.082 0.01-0.145 0.039-0.221 c0.039-0.103 0.111-0.16 0.09-0.293c-0.01-0.062-0.052-0.12-0.064-0.187c-0.022-0.114 0.002-0.224 0-0.337 c-0.003-0.2 0.017-0.379-0.078-0.55c-0.38-0.688-1.236-0.929-1.975-0.789c-0.18 0.034-0.287 0.126-0.442 0.2 c-0.17 0.088-0.139 0.166-0.318 0.224c-0.081 0.026-0.216 0.124-0.215 0.224c0.001 0.1 0 0.1 0 0.2 c-0.021 0.011-0.021-0.005-0.03-0.025"/>
			</g>
			<g>
				<path fill="#FFFFFF" d="M69.439-33.39c0.018 0.1 0 0.127-0.026 0.19c-0.053 0.101-0.112 0.062-0.165 0.1 c-0.05 0.062-0.099 0.276-0.079 0.362c-0.169 0.058-0.01 0.227-0.015 0.35c-0.002 0.05-0.041 0.105-0.045 0.2 c-0.01 0.1 0 0.3 0.1 0.37c0.097 0.2 0.3 0.4 0.4 0.544c0.19 0.1 0.4 0.6 0.6 0.6 c0.177 0 0.384-0.104 0.543-0.143c0.18-0.043 0.4 0 0.571-0.053c0.222-0.079 0.127-0.337 0.288-0.45 c0.104-0.074 0.287-0.01 0.406-0.051c0.2-0.069 0.339-0.263 0.376-0.46c0.016-0.082 0.01-0.145 0.039-0.221 c0.039-0.103 0.111-0.16 0.09-0.293c-0.01-0.062-0.052-0.12-0.064-0.187c-0.022-0.114 0.002-0.224 0-0.337 c-0.003-0.2 0.017-0.379-0.078-0.55c-0.38-0.688-1.236-0.929-1.975-0.789c-0.18 0.034-0.287 0.126-0.442 0.2 c-0.17 0.088-0.139 0.166-0.318 0.224c-0.081 0.026-0.216 0.124-0.215 0.224c0.001 0.1 0 0.1 0 0.2 c-0.021 0.011-0.021-0.005-0.03-0.025"/>
				<path fill="#FFFFFF" d="M61.778-33.39c0.018 0.1 0 0.127-0.026 0.19c-0.053 0.101-0.112 0.062-0.165 0.1 c-0.05 0.062-0.099 0.276-0.079 0.362c-0.169 0.058-0.009 0.227-0.015 0.35c-0.002 0.05-0.041 0.105-0.045 0.2 c-0.01 0.1 0 0.3 0.1 0.37c0.097 0.2 0.3 0.4 0.4 0.544c0.19 0.1 0.4 0.6 0.6 0.6 c0.177 0 0.384-0.104 0.543-0.143c0.18-0.043 0.4 0 0.571-0.053c0.222-0.079 0.127-0.337 0.288-0.45 c0.104-0.074 0.287-0.01 0.406-0.051c0.2-0.069 0.339-0.263 0.376-0.46c0.016-0.082 0.01-0.145 0.039-0.221 c0.039-0.103 0.111-0.16 0.09-0.293c-0.01-0.062-0.052-0.12-0.064-0.187c-0.022-0.114 0.002-0.224 0-0.337 c-0.003-0.2 0.017-0.379-0.078-0.55c-0.38-0.688-1.236-0.929-1.975-0.789c-0.18 0.034-0.287 0.126-0.442 0.2 c-0.17 0.088-0.139 0.166-0.318 0.224c-0.081 0.026-0.216 0.124-0.215 0.224c0.001 0.1 0 0.1 0 0.2 c-0.021 0.011-0.021-0.005-0.03-0.025"/>
				<path fill="#FFFFFF" d="M54.118-33.39c0.018 0.1 0 0.127-0.026 0.19c-0.053 0.101-0.112 0.062-0.165 0.1 c-0.05 0.062-0.099 0.276-0.079 0.362c-0.169 0.058-0.009 0.227-0.015 0.35c-0.002 0.05-0.041 0.105-0.045 0.2 c-0.01 0.1 0 0.3 0.1 0.37c0.097 0.2 0.3 0.4 0.4 0.544c0.19 0.1 0.4 0.6 0.6 0.6 c0.177 0 0.384-0.104 0.543-0.143c0.18-0.043 0.4 0 0.571-0.053c0.222-0.079 0.127-0.337 0.288-0.45 c0.104-0.074 0.287-0.01 0.406-0.051c0.2-0.069 0.339-0.263 0.376-0.46c0.016-0.082 0.01-0.145 0.039-0.221 c0.039-0.103 0.111-0.16 0.09-0.293c-0.01-0.062-0.052-0.12-0.064-0.187c-0.022-0.114 0.002-0.224 0-0.337 c-0.003-0.2 0.017-0.379-0.078-0.55c-0.38-0.688-1.236-0.929-1.975-0.789c-0.18 0.034-0.287 0.126-0.442 0.2 c-0.17 0.088-0.139 0.166-0.318 0.224c-0.081 0.026-0.216 0.124-0.215 0.224c0.001 0.1 0 0.1 0 0.2 c-0.021 0.011-0.021-0.005-0.03-0.025"/>
				<path fill="#FFFFFF" d="M46.458-33.39c0.018 0.1 0 0.127-0.026 0.19c-0.053 0.101-0.112 0.062-0.165 0.1 c-0.05 0.062-0.099 0.276-0.079 0.362c-0.169 0.058-0.009 0.227-0.015 0.35c-0.002 0.05-0.041 0.105-0.045 0.2 c-0.01 0.1 0 0.3 0.1 0.37c0.097 0.2 0.3 0.4 0.4 0.544c0.19 0.1 0.4 0.6 0.6 0.6 c0.177 0 0.384-0.104 0.543-0.143c0.18-0.043 0.4 0 0.571-0.053c0.222-0.079 0.127-0.337 0.288-0.45 c0.104-0.074 0.287-0.01 0.406-0.051c0.2-0.069 0.339-0.263 0.376-0.46c0.016-0.082 0.01-0.145 0.039-0.221 c0.039-0.103 0.111-0.16 0.09-0.293c-0.01-0.062-0.052-0.12-0.064-0.187c-0.022-0.114 0.002-0.224 0-0.337 c-0.003-0.2 0.017-0.379-0.078-0.55c-0.38-0.688-1.236-0.929-1.975-0.789c-0.18 0.034-0.287 0.126-0.442 0.2 c-0.17 0.088-0.139 0.166-0.318 0.224c-0.081 0.026-0.216 0.124-0.215 0.224c0.001 0.1 0 0.1 0 0.2 c-0.021 0.011-0.021-0.005-0.03-0.025"/>
				<path fill="#FFFFFF" d="M38.797-33.39c0.018 0.1 0 0.127-0.026 0.19c-0.053 0.101-0.112 0.062-0.165 0.1 c-0.05 0.062-0.099 0.276-0.079 0.362c-0.169 0.058-0.009 0.227-0.015 0.35c-0.002 0.05-0.041 0.105-0.045 0.2 c-0.01 0.1 0 0.3 0.1 0.37c0.097 0.2 0.3 0.4 0.4 0.544c0.19 0.1 0.4 0.6 0.6 0.6 c0.177 0 0.384-0.104 0.543-0.143c0.18-0.043 0.4 0 0.571-0.053c0.222-0.079 0.127-0.337 0.288-0.45 c0.104-0.074 0.287-0.01 0.406-0.051c0.2-0.069 0.339-0.263 0.376-0.46c0.016-0.082 0.01-0.145 0.039-0.221 c0.039-0.103 0.111-0.16 0.09-0.293c-0.01-0.062-0.052-0.12-0.064-0.187c-0.022-0.114 0.002-0.224 0-0.337 c-0.003-0.2 0.017-0.379-0.078-0.55c-0.38-0.688-1.236-0.929-1.975-0.789c-0.18 0.034-0.287 0.126-0.442 0.2 c-0.17 0.088-0.139 0.166-0.318 0.224c-0.081 0.026-0.216 0.124-0.215 0.224c0.001 0.1 0 0.1 0 0.2 c-0.021 0.011-0.021-0.005-0.03-0.025"/>
				<path fill="#FFFFFF" d="M31.137-33.39c0.018 0.1 0 0.127-0.026 0.19c-0.053 0.101-0.112 0.062-0.165 0.1 c-0.05 0.062-0.099 0.276-0.079 0.362c-0.169 0.058-0.009 0.227-0.015 0.35c-0.002 0.05-0.041 0.105-0.045 0.2 c-0.01 0.1 0 0.3 0.1 0.37c0.097 0.2 0.3 0.4 0.4 0.544c0.19 0.1 0.4 0.6 0.6 0.6 c0.177 0 0.384-0.104 0.543-0.143c0.18-0.043 0.4 0 0.571-0.053c0.222-0.079 0.127-0.337 0.288-0.45 c0.104-0.074 0.287-0.01 0.406-0.051c0.2-0.069 0.339-0.263 0.376-0.46c0.016-0.082 0.01-0.145 0.039-0.221 c0.039-0.103 0.111-0.16 0.09-0.293c-0.01-0.062-0.052-0.12-0.064-0.187c-0.022-0.114 0.002-0.224 0-0.337 c-0.003-0.2 0.017-0.379-0.078-0.55c-0.38-0.688-1.236-0.929-1.975-0.789c-0.18 0.034-0.287 0.126-0.442 0.2 c-0.17 0.088-0.139 0.166-0.318 0.224c-0.081 0.026-0.216 0.124-0.215 0.224c0.001 0.1 0 0.1 0 0.2 c-0.021 0.011-0.021-0.005-0.03-0.025"/>
				<path fill="#FFFFFF" d="M23.477-33.39c0.018 0.1 0 0.127-0.026 0.19c-0.053 0.101-0.112 0.062-0.165 0.1 c-0.05 0.062-0.099 0.276-0.079 0.362c-0.169 0.058-0.009 0.227-0.015 0.35c-0.002 0.05-0.041 0.105-0.045 0.2 c-0.01 0.1 0 0.3 0.1 0.37c0.097 0.2 0.3 0.4 0.4 0.544c0.19 0.1 0.4 0.6 0.6 0.6 c0.177 0 0.384-0.104 0.543-0.143c0.18-0.043 0.4 0 0.571-0.053c0.222-0.079 0.127-0.337 0.288-0.45 c0.104-0.074 0.287-0.01 0.406-0.051c0.2-0.069 0.339-0.263 0.376-0.46c0.016-0.082 0.01-0.145 0.039-0.221 c0.039-0.103 0.111-0.16 0.09-0.293c-0.01-0.062-0.052-0.12-0.064-0.187c-0.022-0.114 0.002-0.224 0-0.337 c-0.003-0.2 0.017-0.379-0.078-0.55c-0.38-0.688-1.236-0.929-1.975-0.789c-0.18 0.034-0.287 0.126-0.442 0.2 c-0.17 0.088-0.139 0.166-0.318 0.224c-0.081 0.026-0.216 0.124-0.215 0.224c0.001 0.1 0 0.1 0 0.2 c-0.021 0.011-0.021-0.005-0.03-0.025"/>
				<path fill="#FFFFFF" d="M15.816-33.39c0.018 0.1 0 0.127-0.026 0.19c-0.053 0.101-0.112 0.062-0.165 0.1 c-0.05 0.062-0.099 0.276-0.079 0.362c-0.169 0.058-0.009 0.227-0.015 0.35c-0.002 0.05-0.041 0.105-0.045 0.2 c-0.01 0.1 0 0.3 0.1 0.37c0.097 0.2 0.3 0.4 0.4 0.544c0.19 0.1 0.4 0.6 0.6 0.6 c0.177 0 0.384-0.104 0.543-0.143c0.18-0.043 0.4 0 0.571-0.053c0.222-0.079 0.127-0.337 0.288-0.45 c0.104-0.074 0.287-0.01 0.406-0.051c0.2-0.069 0.339-0.263 0.376-0.46c0.016-0.082 0.01-0.145 0.039-0.221 c0.039-0.103 0.111-0.16 0.09-0.293c-0.01-0.062-0.052-0.12-0.064-0.187c-0.022-0.114 0.002-0.224 0-0.337 c-0.003-0.2 0.017-0.379-0.078-0.55c-0.38-0.688-1.236-0.929-1.975-0.789c-0.18 0.034-0.287 0.126-0.442 0.2 c-0.17 0.088-0.139 0.166-0.318 0.224c-0.081 0.026-0.216 0.124-0.215 0.224c0.001 0.1 0 0.1 0 0.2 c-0.021 0.011-0.021-0.005-0.03-0.025"/>
				<path fill="#FFFFFF" d="M8.156-33.39c0.018 0.1 0 0.127-0.026 0.19c-0.053 0.101-0.112 0.062-0.165 0.1 c-0.05 0.062-0.099 0.276-0.079 0.362c-0.169 0.058-0.009 0.227-0.015 0.35c-0.002 0.05-0.041 0.105-0.045 0.2 c-0.01 0.1 0 0.3 0.1 0.37c0.097 0.2 0.3 0.4 0.4 0.544c0.19 0.1 0.4 0.6 0.6 0.6 c0.177 0 0.384-0.104 0.543-0.143c0.18-0.043 0.4 0 0.571-0.053c0.222-0.079 0.127-0.337 0.288-0.45 c0.104-0.074 0.287-0.01 0.406-0.051c0.2-0.069 0.339-0.263 0.376-0.46c0.016-0.082 0.01-0.145 0.039-0.221 c0.039-0.103 0.111-0.16 0.09-0.293c-0.01-0.062-0.052-0.12-0.064-0.187c-0.022-0.114 0.002-0.224 0-0.337 c-0.003-0.2 0.017-0.379-0.078-0.55c-0.38-0.688-1.236-0.929-1.975-0.789c-0.18 0.034-0.287 0.126-0.442 0.2 c-0.17 0.088-0.139 0.166-0.318 0.224c-0.081 0.026-0.216 0.124-0.215 0.224c0.001 0.1 0 0.1 0 0.2 c-0.021 0.011-0.021-0.005-0.03-0.025"/>
				<path fill="#FFFFFF" d="M0.495-33.39c0.018 0.1 0 0.127-0.026 0.19c-0.053 0.101-0.112 0.062-0.165 0.1 c-0.05 0.062-0.099 0.276-0.079 0.362c-0.169 0.058-0.01 0.227-0.015 0.35c-0.002 0.05-0.041 0.105-0.045 0.2 c-0.01 0.1 0 0.3 0.1 0.37c0.097 0.2 0.3 0.4 0.4 0.544c0.19 0.1 0.4 0.6 0.6 0.6 c0.177 0 0.384-0.104 0.543-0.143c0.18-0.043 0.4 0 0.571-0.053c0.222-0.079 0.127-0.337 0.288-0.45 c0.104-0.074 0.287-0.01 0.406-0.051c0.2-0.069 0.339-0.263 0.376-0.46c0.016-0.082 0.01-0.145 0.039-0.221 c0.039-0.103 0.111-0.16 0.09-0.293c-0.01-0.062-0.052-0.12-0.064-0.187c-0.022-0.114 0.002-0.224 0-0.337 c-0.003-0.2 0.017-0.379-0.078-0.55c-0.38-0.688-1.236-0.929-1.975-0.789c-0.18 0.034-0.287 0.126-0.442 0.2 c-0.17 0.088-0.139 0.166-0.318 0.224c-0.081 0.026-0.216 0.124-0.215 0.224C0.5-33.416 0.503-33.48 0.51-33.362 c-0.021 0.011-0.021-0.005-0.03-0.025"/>
			</g>
			<g>
				<path fill="#FFFFFF" d="M69.439-25.736c0.018 0.1 0 0.127-0.026 0.19c-0.053 0.101-0.112 0.062-0.165 0.1 c-0.05 0.062-0.099 0.276-0.079 0.362c-0.169 0.058-0.01 0.227-0.015 0.35c-0.002 0.05-0.041 0.105-0.045 0.2 c-0.01 0.1 0 0.3 0.1 0.37c0.097 0.2 0.3 0.4 0.4 0.544c0.19 0.1 0.4 0.6 0.6 0.6 c0.177 0 0.384-0.104 0.543-0.143c0.18-0.043 0.4 0 0.571-0.053c0.222-0.079 0.127-0.337 0.288-0.45 c0.104-0.074 0.287-0.01 0.406-0.051c0.2-0.069 0.339-0.263 0.376-0.46c0.016-0.082 0.01-0.145 0.039-0.221 c0.039-0.103 0.111-0.16 0.09-0.293c-0.01-0.062-0.052-0.12-0.064-0.187c-0.022-0.114 0.002-0.224 0-0.337 c-0.003-0.2 0.017-0.379-0.078-0.55c-0.38-0.688-1.236-0.929-1.975-0.789c-0.18 0.034-0.287 0.126-0.442 0.2 c-0.17 0.088-0.139 0.166-0.318 0.224c-0.081 0.026-0.216 0.124-0.215 0.224c0.001 0.1 0 0.1 0 0.2 c-0.021 0.011-0.021-0.005-0.03-0.025"/>
				<path fill="#FFFFFF" d="M61.778-25.736c0.018 0.1 0 0.127-0.026 0.19c-0.053 0.101-0.112 0.062-0.165 0.1 c-0.05 0.062-0.099 0.276-0.079 0.362c-0.169 0.058-0.009 0.227-0.015 0.35c-0.002 0.05-0.041 0.105-0.045 0.2 c-0.01 0.1 0 0.3 0.1 0.37c0.097 0.2 0.3 0.4 0.4 0.544c0.19 0.1 0.4 0.6 0.6 0.6 c0.177 0 0.384-0.104 0.543-0.143c0.18-0.043 0.4 0 0.571-0.053c0.222-0.079 0.127-0.337 0.288-0.45 c0.104-0.074 0.287-0.01 0.406-0.051c0.2-0.069 0.339-0.263 0.376-0.46c0.016-0.082 0.01-0.145 0.039-0.221 c0.039-0.103 0.111-0.16 0.09-0.293c-0.01-0.062-0.052-0.12-0.064-0.187c-0.022-0.114 0.002-0.224 0-0.337 c-0.003-0.2 0.017-0.379-0.078-0.55c-0.38-0.688-1.236-0.929-1.975-0.789c-0.18 0.034-0.287 0.126-0.442 0.2 c-0.17 0.088-0.139 0.166-0.318 0.224c-0.081 0.026-0.216 0.124-0.215 0.224c0.001 0.1 0 0.1 0 0.2 c-0.021 0.011-0.021-0.005-0.03-0.025"/>
				<path fill="#FFFFFF" d="M54.118-25.736c0.018 0.1 0 0.127-0.026 0.19c-0.053 0.101-0.112 0.062-0.165 0.1 c-0.05 0.062-0.099 0.276-0.079 0.362c-0.169 0.058-0.009 0.227-0.015 0.35c-0.002 0.05-0.041 0.105-0.045 0.2 c-0.01 0.1 0 0.3 0.1 0.37c0.097 0.2 0.3 0.4 0.4 0.544c0.19 0.1 0.4 0.6 0.6 0.6 c0.177 0 0.384-0.104 0.543-0.143c0.18-0.043 0.4 0 0.571-0.053c0.222-0.079 0.127-0.337 0.288-0.45 c0.104-0.074 0.287-0.01 0.406-0.051c0.2-0.069 0.339-0.263 0.376-0.46c0.016-0.082 0.01-0.145 0.039-0.221 c0.039-0.103 0.111-0.16 0.09-0.293c-0.01-0.062-0.052-0.12-0.064-0.187c-0.022-0.114 0.002-0.224 0-0.337 c-0.003-0.2 0.017-0.379-0.078-0.55c-0.38-0.688-1.236-0.929-1.975-0.789c-0.18 0.034-0.287 0.126-0.442 0.2 c-0.17 0.088-0.139 0.166-0.318 0.224c-0.081 0.026-0.216 0.124-0.215 0.224c0.001 0.1 0 0.1 0 0.2 c-0.021 0.011-0.021-0.005-0.03-0.025"/>
				<path fill="#FFFFFF" d="M46.458-25.736c0.018 0.1 0 0.127-0.026 0.19c-0.053 0.101-0.112 0.062-0.165 0.1 c-0.05 0.062-0.099 0.276-0.079 0.362c-0.169 0.058-0.009 0.227-0.015 0.35c-0.002 0.05-0.041 0.105-0.045 0.2 c-0.01 0.1 0 0.3 0.1 0.37c0.097 0.2 0.3 0.4 0.4 0.544c0.19 0.1 0.4 0.6 0.6 0.6 c0.177 0 0.384-0.104 0.543-0.143c0.18-0.043 0.4 0 0.571-0.053c0.222-0.079 0.127-0.337 0.288-0.45 c0.104-0.074 0.287-0.01 0.406-0.051c0.2-0.069 0.339-0.263 0.376-0.46c0.016-0.082 0.01-0.145 0.039-0.221 c0.039-0.103 0.111-0.16 0.09-0.293c-0.01-0.062-0.052-0.12-0.064-0.187c-0.022-0.114 0.002-0.224 0-0.337 c-0.003-0.2 0.017-0.379-0.078-0.55c-0.38-0.688-1.236-0.929-1.975-0.789c-0.18 0.034-0.287 0.126-0.442 0.2 c-0.17 0.088-0.139 0.166-0.318 0.224c-0.081 0.026-0.216 0.124-0.215 0.224c0.001 0.1 0 0.1 0 0.2 c-0.021 0.011-0.021-0.005-0.03-0.025"/>
				<path fill="#FFFFFF" d="M38.797-25.736c0.018 0.1 0 0.127-0.026 0.19c-0.053 0.101-0.112 0.062-0.165 0.1 c-0.05 0.062-0.099 0.276-0.079 0.362c-0.169 0.058-0.009 0.227-0.015 0.35c-0.002 0.05-0.041 0.105-0.045 0.2 c-0.01 0.1 0 0.3 0.1 0.37c0.097 0.2 0.3 0.4 0.4 0.544c0.19 0.1 0.4 0.6 0.6 0.6 c0.177 0 0.384-0.104 0.543-0.143c0.18-0.043 0.4 0 0.571-0.053c0.222-0.079 0.127-0.337 0.288-0.45 c0.104-0.074 0.287-0.01 0.406-0.051c0.2-0.069 0.339-0.263 0.376-0.46c0.016-0.082 0.01-0.145 0.039-0.221 c0.039-0.103 0.111-0.16 0.09-0.293c-0.01-0.062-0.052-0.12-0.064-0.187c-0.022-0.114 0.002-0.224 0-0.337 c-0.003-0.2 0.017-0.379-0.078-0.55c-0.38-0.688-1.236-0.929-1.975-0.789c-0.18 0.034-0.287 0.126-0.442 0.2 c-0.17 0.088-0.139 0.166-0.318 0.224c-0.081 0.026-0.216 0.124-0.215 0.224c0.001 0.1 0 0.1 0 0.2 c-0.021 0.011-0.021-0.005-0.03-0.025"/>
				<path fill="#FFFFFF" d="M31.137-25.736c0.018 0.1 0 0.127-0.026 0.19c-0.053 0.101-0.112 0.062-0.165 0.1 c-0.05 0.062-0.099 0.276-0.079 0.362c-0.169 0.058-0.009 0.227-0.015 0.35c-0.002 0.05-0.041 0.105-0.045 0.2 c-0.01 0.1 0 0.3 0.1 0.37c0.097 0.2 0.3 0.4 0.4 0.544c0.19 0.1 0.4 0.6 0.6 0.6 c0.177 0 0.384-0.104 0.543-0.143c0.18-0.043 0.4 0 0.571-0.053c0.222-0.079 0.127-0.337 0.288-0.45 c0.104-0.074 0.287-0.01 0.406-0.051c0.2-0.069 0.339-0.263 0.376-0.46c0.016-0.082 0.01-0.145 0.039-0.221 c0.039-0.103 0.111-0.16 0.09-0.293c-0.01-0.062-0.052-0.12-0.064-0.187c-0.022-0.114 0.002-0.224 0-0.337 c-0.003-0.2 0.017-0.379-0.078-0.55c-0.38-0.688-1.236-0.929-1.975-0.789c-0.18 0.034-0.287 0.126-0.442 0.2 c-0.17 0.088-0.139 0.166-0.318 0.224c-0.081 0.026-0.216 0.124-0.215 0.224c0.001 0.1 0 0.1 0 0.2 c-0.021 0.011-0.021-0.005-0.03-0.025"/>
				<path fill="#FFFFFF" d="M23.477-25.736c0.018 0.1 0 0.127-0.026 0.19c-0.053 0.101-0.112 0.062-0.165 0.1 c-0.05 0.062-0.099 0.276-0.079 0.362c-0.169 0.058-0.009 0.227-0.015 0.35c-0.002 0.05-0.041 0.105-0.045 0.2 c-0.01 0.1 0 0.3 0.1 0.37c0.097 0.2 0.3 0.4 0.4 0.544c0.19 0.1 0.4 0.6 0.6 0.6 c0.177 0 0.384-0.104 0.543-0.143c0.18-0.043 0.4 0 0.571-0.053c0.222-0.079 0.127-0.337 0.288-0.45 c0.104-0.074 0.287-0.01 0.406-0.051c0.2-0.069 0.339-0.263 0.376-0.46c0.016-0.082 0.01-0.145 0.039-0.221 c0.039-0.103 0.111-0.16 0.09-0.293c-0.01-0.062-0.052-0.12-0.064-0.187c-0.022-0.114 0.002-0.224 0-0.337 c-0.003-0.2 0.017-0.379-0.078-0.55c-0.38-0.688-1.236-0.929-1.975-0.789c-0.18 0.034-0.287 0.126-0.442 0.2 c-0.17 0.088-0.139 0.166-0.318 0.224c-0.081 0.026-0.216 0.124-0.215 0.224c0.001 0.1 0 0.1 0 0.2 c-0.021 0.011-0.021-0.005-0.03-0.025"/>
				<path fill="#FFFFFF" d="M15.816-25.736c0.018 0.1 0 0.127-0.026 0.19c-0.053 0.101-0.112 0.062-0.165 0.1 c-0.05 0.062-0.099 0.276-0.079 0.362c-0.169 0.058-0.009 0.227-0.015 0.35c-0.002 0.05-0.041 0.105-0.045 0.2 c-0.01 0.1 0 0.3 0.1 0.37c0.097 0.2 0.3 0.4 0.4 0.544c0.19 0.1 0.4 0.6 0.6 0.6 c0.177 0 0.384-0.104 0.543-0.143c0.18-0.043 0.4 0 0.571-0.053c0.222-0.079 0.127-0.337 0.288-0.45 c0.104-0.074 0.287-0.01 0.406-0.051c0.2-0.069 0.339-0.263 0.376-0.46c0.016-0.082 0.01-0.145 0.039-0.221 c0.039-0.103 0.111-0.16 0.09-0.293c-0.01-0.062-0.052-0.12-0.064-0.187c-0.022-0.114 0.002-0.224 0-0.337 c-0.003-0.2 0.017-0.379-0.078-0.55c-0.38-0.688-1.236-0.929-1.975-0.789c-0.18 0.034-0.287 0.126-0.442 0.2 c-0.17 0.088-0.139 0.166-0.318 0.224c-0.081 0.026-0.216 0.124-0.215 0.224c0.001 0.1 0 0.1 0 0.2 c-0.021 0.011-0.021-0.005-0.03-0.025"/>
				<path fill="#FFFFFF" d="M8.156-25.736c0.018 0.1 0 0.127-0.026 0.19c-0.053 0.101-0.112 0.062-0.165 0.1 c-0.05 0.062-0.099 0.276-0.079 0.362c-0.169 0.058-0.009 0.227-0.015 0.35c-0.002 0.05-0.041 0.105-0.045 0.2 c-0.01 0.1 0 0.3 0.1 0.37c0.097 0.2 0.3 0.4 0.4 0.544c0.19 0.1 0.4 0.6 0.6 0.6 c0.177 0 0.384-0.104 0.543-0.143c0.18-0.043 0.4 0 0.571-0.053c0.222-0.079 0.127-0.337 0.288-0.45 c0.104-0.074 0.287-0.01 0.406-0.051c0.2-0.069 0.339-0.263 0.376-0.46c0.016-0.082 0.01-0.145 0.039-0.221 c0.039-0.103 0.111-0.16 0.09-0.293c-0.01-0.062-0.052-0.12-0.064-0.187c-0.022-0.114 0.002-0.224 0-0.337 c-0.003-0.2 0.017-0.379-0.078-0.55c-0.38-0.688-1.236-0.929-1.975-0.789c-0.18 0.034-0.287 0.126-0.442 0.2 c-0.17 0.088-0.139 0.166-0.318 0.224c-0.081 0.026-0.216 0.124-0.215 0.224c0.001 0.1 0 0.1 0 0.2 c-0.021 0.011-0.021-0.005-0.03-0.025"/>
				<path fill="#FFFFFF" d="M0.495-25.736c0.018 0.1 0 0.127-0.026 0.19c-0.053 0.101-0.112 0.062-0.165 0.1 c-0.05 0.062-0.099 0.276-0.079 0.362c-0.169 0.058-0.01 0.227-0.015 0.35c-0.002 0.05-0.041 0.105-0.045 0.2 c-0.01 0.1 0 0.3 0.1 0.37c0.097 0.2 0.3 0.4 0.4 0.544c0.19 0.1 0.4 0.6 0.6 0.6 c0.177 0 0.384-0.104 0.543-0.143c0.18-0.043 0.4 0 0.571-0.053c0.222-0.079 0.127-0.337 0.288-0.45 c0.104-0.074 0.287-0.01 0.406-0.051c0.2-0.069 0.339-0.263 0.376-0.46c0.016-0.082 0.01-0.145 0.039-0.221 c0.039-0.103 0.111-0.16 0.09-0.293c-0.01-0.062-0.052-0.12-0.064-0.187c-0.022-0.114 0.002-0.224 0-0.337 c-0.003-0.2 0.017-0.379-0.078-0.55c-0.38-0.688-1.236-0.929-1.975-0.789c-0.18 0.034-0.287 0.126-0.442 0.2 c-0.17 0.088-0.139 0.166-0.318 0.224c-0.081 0.026-0.216 0.124-0.215 0.224c0.001 0.1 0 0.1 0 0.2 c-0.021 0.011-0.021-0.005-0.03-0.025"/>
			</g>
			<g>
				<path fill="#FFFFFF" d="M69.439-18.084c0.018 0.1 0 0.127-0.026 0.19c-0.053 0.101-0.112 0.062-0.165 0.1 c-0.05 0.062-0.099 0.276-0.079 0.362c-0.169 0.058-0.01 0.227-0.015 0.35c-0.002 0.05-0.041 0.105-0.045 0.2 c-0.01 0.1 0 0.3 0.1 0.37c0.097 0.2 0.3 0.4 0.4 0.544c0.19 0.1 0.4 0.6 0.6 0.6 c0.177 0 0.384-0.104 0.543-0.143c0.18-0.043 0.4 0 0.571-0.053c0.222-0.079 0.127-0.337 0.288-0.45 c0.104-0.074 0.287-0.01 0.406-0.051c0.2-0.069 0.339-0.263 0.376-0.46c0.016-0.082 0.01-0.145 0.039-0.221 c0.039-0.103 0.111-0.16 0.09-0.293c-0.01-0.062-0.052-0.12-0.064-0.187c-0.022-0.114 0.002-0.224 0-0.337 c-0.003-0.2 0.017-0.379-0.078-0.55c-0.38-0.688-1.236-0.929-1.975-0.789c-0.18 0.034-0.287 0.126-0.442 0.2 c-0.17 0.088-0.139 0.166-0.318 0.224c-0.081 0.026-0.216 0.124-0.215 0.224c0.001 0.1 0 0.1 0 0.2 c-0.021 0.011-0.021-0.005-0.03-0.025"/>
				<path fill="#FFFFFF" d="M61.778-18.084c0.018 0.1 0 0.127-0.026 0.19c-0.053 0.101-0.112 0.062-0.165 0.1 c-0.05 0.062-0.099 0.276-0.079 0.362c-0.169 0.058-0.009 0.227-0.015 0.35c-0.002 0.05-0.041 0.105-0.045 0.2 c-0.01 0.1 0 0.3 0.1 0.37c0.097 0.2 0.3 0.4 0.4 0.544c0.19 0.1 0.4 0.6 0.6 0.6 c0.177 0 0.384-0.104 0.543-0.143c0.18-0.043 0.4 0 0.571-0.053c0.222-0.079 0.127-0.337 0.288-0.45 c0.104-0.074 0.287-0.01 0.406-0.051c0.2-0.069 0.339-0.263 0.376-0.46c0.016-0.082 0.01-0.145 0.039-0.221 c0.039-0.103 0.111-0.16 0.09-0.293c-0.01-0.062-0.052-0.12-0.064-0.187c-0.022-0.114 0.002-0.224 0-0.337 c-0.003-0.2 0.017-0.379-0.078-0.55c-0.38-0.688-1.236-0.929-1.975-0.789c-0.18 0.034-0.287 0.126-0.442 0.2 c-0.17 0.088-0.139 0.166-0.318 0.224c-0.081 0.026-0.216 0.124-0.215 0.224c0.001 0.1 0 0.1 0 0.2 c-0.021 0.011-0.021-0.005-0.03-0.025"/>
				<path fill="#FFFFFF" d="M54.118-18.084c0.018 0.1 0 0.127-0.026 0.19c-0.053 0.101-0.112 0.062-0.165 0.1 c-0.05 0.062-0.099 0.276-0.079 0.362c-0.169 0.058-0.009 0.227-0.015 0.35c-0.002 0.05-0.041 0.105-0.045 0.2 c-0.01 0.1 0 0.3 0.1 0.37c0.097 0.2 0.3 0.4 0.4 0.544c0.19 0.1 0.4 0.6 0.6 0.6 c0.177 0 0.384-0.104 0.543-0.143c0.18-0.043 0.4 0 0.571-0.053c0.222-0.079 0.127-0.337 0.288-0.45 c0.104-0.074 0.287-0.01 0.406-0.051c0.2-0.069 0.339-0.263 0.376-0.46c0.016-0.082 0.01-0.145 0.039-0.221 c0.039-0.103 0.111-0.16 0.09-0.293c-0.01-0.062-0.052-0.12-0.064-0.187c-0.022-0.114 0.002-0.224 0-0.337 c-0.003-0.2 0.017-0.379-0.078-0.55c-0.38-0.688-1.236-0.929-1.975-0.789c-0.18 0.034-0.287 0.126-0.442 0.2 c-0.17 0.088-0.139 0.166-0.318 0.224c-0.081 0.026-0.216 0.124-0.215 0.224c0.001 0.1 0 0.1 0 0.2 c-0.021 0.011-0.021-0.005-0.03-0.025"/>
				<path fill="#FFFFFF" d="M46.458-18.084c0.018 0.1 0 0.127-0.026 0.19c-0.053 0.101-0.112 0.062-0.165 0.1 c-0.05 0.062-0.099 0.276-0.079 0.362c-0.169 0.058-0.009 0.227-0.015 0.35c-0.002 0.05-0.041 0.105-0.045 0.2 c-0.01 0.1 0 0.3 0.1 0.37c0.097 0.2 0.3 0.4 0.4 0.544c0.19 0.1 0.4 0.6 0.6 0.6 c0.177 0 0.384-0.104 0.543-0.143c0.18-0.043 0.4 0 0.571-0.053c0.222-0.079 0.127-0.337 0.288-0.45 c0.104-0.074 0.287-0.01 0.406-0.051c0.2-0.069 0.339-0.263 0.376-0.46c0.016-0.082 0.01-0.145 0.039-0.221 c0.039-0.103 0.111-0.16 0.09-0.293c-0.01-0.062-0.052-0.12-0.064-0.187c-0.022-0.114 0.002-0.224 0-0.337 c-0.003-0.2 0.017-0.379-0.078-0.55c-0.38-0.688-1.236-0.929-1.975-0.789c-0.18 0.034-0.287 0.126-0.442 0.2 c-0.17 0.088-0.139 0.166-0.318 0.224c-0.081 0.026-0.216 0.124-0.215 0.224c0.001 0.1 0 0.1 0 0.2 c-0.021 0.011-0.021-0.005-0.03-0.025"/>
				<path fill="#FFFFFF" d="M38.797-18.084c0.018 0.1 0 0.127-0.026 0.19c-0.053 0.101-0.112 0.062-0.165 0.1 c-0.05 0.062-0.099 0.276-0.079 0.362c-0.169 0.058-0.009 0.227-0.015 0.35c-0.002 0.05-0.041 0.105-0.045 0.2 c-0.01 0.1 0 0.3 0.1 0.37c0.097 0.2 0.3 0.4 0.4 0.544c0.19 0.1 0.4 0.6 0.6 0.6 c0.177 0 0.384-0.104 0.543-0.143c0.18-0.043 0.4 0 0.571-0.053c0.222-0.079 0.127-0.337 0.288-0.45 c0.104-0.074 0.287-0.01 0.406-0.051c0.2-0.069 0.339-0.263 0.376-0.46c0.016-0.082 0.01-0.145 0.039-0.221 c0.039-0.103 0.111-0.16 0.09-0.293c-0.01-0.062-0.052-0.12-0.064-0.187c-0.022-0.114 0.002-0.224 0-0.337 c-0.003-0.2 0.017-0.379-0.078-0.55c-0.38-0.688-1.236-0.929-1.975-0.789c-0.18 0.034-0.287 0.126-0.442 0.2 c-0.17 0.088-0.139 0.166-0.318 0.224c-0.081 0.026-0.216 0.124-0.215 0.224c0.001 0.1 0 0.1 0 0.2 c-0.021 0.011-0.021-0.005-0.03-0.025"/>
				<path fill="#FFFFFF" d="M31.137-18.084c0.018 0.1 0 0.127-0.026 0.19c-0.053 0.101-0.112 0.062-0.165 0.1 c-0.05 0.062-0.099 0.276-0.079 0.362c-0.169 0.058-0.009 0.227-0.015 0.35c-0.002 0.05-0.041 0.105-0.045 0.2 c-0.01 0.1 0 0.3 0.1 0.37c0.097 0.2 0.3 0.4 0.4 0.544c0.19 0.1 0.4 0.6 0.6 0.6 c0.177 0 0.384-0.104 0.543-0.143c0.18-0.043 0.4 0 0.571-0.053c0.222-0.079 0.127-0.337 0.288-0.45 c0.104-0.074 0.287-0.01 0.406-0.051c0.2-0.069 0.339-0.263 0.376-0.46c0.016-0.082 0.01-0.145 0.039-0.221 c0.039-0.103 0.111-0.16 0.09-0.293c-0.01-0.062-0.052-0.12-0.064-0.187c-0.022-0.114 0.002-0.224 0-0.337 c-0.003-0.2 0.017-0.379-0.078-0.55c-0.38-0.688-1.236-0.929-1.975-0.789c-0.18 0.034-0.287 0.126-0.442 0.2 c-0.17 0.088-0.139 0.166-0.318 0.224c-0.081 0.026-0.216 0.124-0.215 0.224c0.001 0.1 0 0.1 0 0.2 c-0.021 0.011-0.021-0.005-0.03-0.025"/>
				<path fill="#FFFFFF" d="M23.477-18.084c0.018 0.1 0 0.127-0.026 0.19c-0.053 0.101-0.112 0.062-0.165 0.1 c-0.05 0.062-0.099 0.276-0.079 0.362c-0.169 0.058-0.009 0.227-0.015 0.35c-0.002 0.05-0.041 0.105-0.045 0.2 c-0.01 0.1 0 0.3 0.1 0.37c0.097 0.2 0.3 0.4 0.4 0.544c0.19 0.1 0.4 0.6 0.6 0.6 c0.177 0 0.384-0.104 0.543-0.143c0.18-0.043 0.4 0 0.571-0.053c0.222-0.079 0.127-0.337 0.288-0.45 c0.104-0.074 0.287-0.01 0.406-0.051c0.2-0.069 0.339-0.263 0.376-0.46c0.016-0.082 0.01-0.145 0.039-0.221 c0.039-0.103 0.111-0.16 0.09-0.293c-0.01-0.062-0.052-0.12-0.064-0.187c-0.022-0.114 0.002-0.224 0-0.337 c-0.003-0.2 0.017-0.379-0.078-0.55c-0.38-0.688-1.236-0.929-1.975-0.789c-0.18 0.034-0.287 0.126-0.442 0.2 c-0.17 0.088-0.139 0.166-0.318 0.224c-0.081 0.026-0.216 0.124-0.215 0.224c0.001 0.1 0 0.1 0 0.2 c-0.021 0.011-0.021-0.005-0.03-0.025"/>
				<path fill="#FFFFFF" d="M15.816-18.084c0.018 0.1 0 0.127-0.026 0.19c-0.053 0.101-0.112 0.062-0.165 0.1 c-0.05 0.062-0.099 0.276-0.079 0.362c-0.169 0.058-0.009 0.227-0.015 0.35c-0.002 0.05-0.041 0.105-0.045 0.2 c-0.01 0.1 0 0.3 0.1 0.37c0.097 0.2 0.3 0.4 0.4 0.544c0.19 0.1 0.4 0.6 0.6 0.6 c0.177 0 0.384-0.104 0.543-0.143c0.18-0.043 0.4 0 0.571-0.053c0.222-0.079 0.127-0.337 0.288-0.45 c0.104-0.074 0.287-0.01 0.406-0.051c0.2-0.069 0.339-0.263 0.376-0.46c0.016-0.082 0.01-0.145 0.039-0.221 c0.039-0.103 0.111-0.16 0.09-0.293c-0.01-0.062-0.052-0.12-0.064-0.187c-0.022-0.114 0.002-0.224 0-0.337 c-0.003-0.2 0.017-0.379-0.078-0.55c-0.38-0.688-1.236-0.929-1.975-0.789c-0.18 0.034-0.287 0.126-0.442 0.2 c-0.17 0.088-0.139 0.166-0.318 0.224c-0.081 0.026-0.216 0.124-0.215 0.224c0.001 0.1 0 0.1 0 0.2 c-0.021 0.011-0.021-0.005-0.03-0.025"/>
				<path fill="#FFFFFF" d="M8.156-18.084c0.018 0.1 0 0.127-0.026 0.19c-0.053 0.101-0.112 0.062-0.165 0.1 c-0.05 0.062-0.099 0.276-0.079 0.362c-0.169 0.058-0.009 0.227-0.015 0.35c-0.002 0.05-0.041 0.105-0.045 0.2 c-0.01 0.1 0 0.3 0.1 0.37c0.097 0.2 0.3 0.4 0.4 0.544c0.19 0.1 0.4 0.6 0.6 0.6 c0.177 0 0.384-0.104 0.543-0.143c0.18-0.043 0.4 0 0.571-0.053c0.222-0.079 0.127-0.337 0.288-0.45 c0.104-0.074 0.287-0.01 0.406-0.051c0.2-0.069 0.339-0.263 0.376-0.46c0.016-0.082 0.01-0.145 0.039-0.221 c0.039-0.103 0.111-0.16 0.09-0.293c-0.01-0.062-0.052-0.12-0.064-0.187c-0.022-0.114 0.002-0.224 0-0.337 c-0.003-0.2 0.017-0.379-0.078-0.55c-0.38-0.688-1.236-0.929-1.975-0.789c-0.18 0.034-0.287 0.126-0.442 0.2 c-0.17 0.088-0.139 0.166-0.318 0.224c-0.081 0.026-0.216 0.124-0.215 0.224c0.001 0.1 0 0.1 0 0.2 c-0.021 0.011-0.021-0.005-0.03-0.025"/>
				<path fill="#FFFFFF" d="M0.495-18.084c0.018 0.1 0 0.127-0.026 0.19c-0.053 0.101-0.112 0.062-0.165 0.1 c-0.05 0.062-0.099 0.276-0.079 0.362c-0.169 0.058-0.01 0.227-0.015 0.35c-0.002 0.05-0.041 0.105-0.045 0.2 c-0.01 0.1 0 0.3 0.1 0.37c0.097 0.2 0.3 0.4 0.4 0.544c0.19 0.1 0.4 0.6 0.6 0.6 c0.177 0 0.384-0.104 0.543-0.143c0.18-0.043 0.4 0 0.571-0.053c0.222-0.079 0.127-0.337 0.288-0.45 c0.104-0.074 0.287-0.01 0.406-0.051c0.2-0.069 0.339-0.263 0.376-0.46c0.016-0.082 0.01-0.145 0.039-0.221 c0.039-0.103 0.111-0.16 0.09-0.293c-0.01-0.062-0.052-0.12-0.064-0.187c-0.022-0.114 0.002-0.224 0-0.337 c-0.003-0.2 0.017-0.379-0.078-0.55c-0.38-0.688-1.236-0.929-1.975-0.789c-0.18 0.034-0.287 0.126-0.442 0.2 c-0.17 0.088-0.139 0.166-0.318 0.224c-0.081 0.026-0.216 0.124-0.215 0.224C0.5-18.11 0.503-18.175 0.51-18.057 c-0.021 0.011-0.021-0.005-0.03-0.025"/>
			</g>
			<g>
				<path fill="#FFFFFF" d="M69.439-10.431c0.018 0.1 0 0.127-0.026 0.19c-0.053 0.101-0.112 0.062-0.165 0.1 c-0.05 0.062-0.099 0.276-0.079 0.362C69-9.692 69.159-9.523 69.154-9.4c-0.002 0.05-0.041 0.105-0.045 0.2 c-0.01 0.1 0 0.3 0.1 0.37c0.097 0.2 0.3 0.4 0.4 0.544c0.19 0.1 0.4 0.6 0.6 0.6 c0.177 0 0.384-0.104 0.543-0.143c0.18-0.043 0.4 0 0.571-0.053c0.222-0.079 0.127-0.337 0.288-0.45 c0.104-0.074 0.287-0.01 0.406-0.051c0.2-0.069 0.339-0.263 0.376-0.46c0.016-0.082 0.01-0.145 0.039-0.221 c0.039-0.103 0.111-0.16 0.09-0.293c-0.01-0.062-0.052-0.12-0.064-0.187c-0.022-0.114 0.002-0.224 0-0.337 c-0.003-0.2 0.017-0.379-0.078-0.55c-0.38-0.688-1.236-0.929-1.975-0.789c-0.18 0.034-0.287 0.126-0.442 0.2 c-0.17 0.088-0.139 0.166-0.318 0.224c-0.081 0.026-0.216 0.124-0.215 0.224c0.001 0.1 0 0.1 0 0.2 c-0.021 0.011-0.021-0.005-0.03-0.025"/>
				<path fill="#FFFFFF" d="M61.778-10.431c0.018 0.1 0 0.127-0.026 0.19c-0.053 0.101-0.112 0.062-0.165 0.1 c-0.05 0.062-0.099 0.276-0.079 0.362c-0.169 0.058-0.009 0.227-0.015 0.35c-0.002 0.05-0.041 0.105-0.045 0.2 c-0.01 0.1 0 0.3 0.1 0.37c0.097 0.2 0.3 0.4 0.4 0.544c0.19 0.1 0.4 0.6 0.6 0.6 c0.177 0 0.384-0.104 0.543-0.143c0.18-0.043 0.4 0 0.571-0.053c0.222-0.079 0.127-0.337 0.288-0.45 c0.104-0.074 0.287-0.01 0.406-0.051c0.2-0.069 0.339-0.263 0.376-0.46c0.016-0.082 0.01-0.145 0.039-0.221 c0.039-0.103 0.111-0.16 0.09-0.293c-0.01-0.062-0.052-0.12-0.064-0.187c-0.022-0.114 0.002-0.224 0-0.337 c-0.003-0.2 0.017-0.379-0.078-0.55c-0.38-0.688-1.236-0.929-1.975-0.789c-0.18 0.034-0.287 0.126-0.442 0.2 c-0.17 0.088-0.139 0.166-0.318 0.224c-0.081 0.026-0.216 0.124-0.215 0.224c0.001 0.1 0 0.1 0 0.2 c-0.021 0.011-0.021-0.005-0.03-0.025"/>
				<path fill="#FFFFFF" d="M54.118-10.431c0.018 0.1 0 0.127-0.026 0.19c-0.053 0.101-0.112 0.062-0.165 0.1 c-0.05 0.062-0.099 0.276-0.079 0.362c-0.169 0.058-0.009 0.227-0.015 0.35c-0.002 0.05-0.041 0.105-0.045 0.2 c-0.01 0.1 0 0.3 0.1 0.37c0.097 0.2 0.3 0.4 0.4 0.544c0.19 0.1 0.4 0.6 0.6 0.6 c0.177 0 0.384-0.104 0.543-0.143c0.18-0.043 0.4 0 0.571-0.053c0.222-0.079 0.127-0.337 0.288-0.45 c0.104-0.074 0.287-0.01 0.406-0.051c0.2-0.069 0.339-0.263 0.376-0.46c0.016-0.082 0.01-0.145 0.039-0.221 c0.039-0.103 0.111-0.16 0.09-0.293c-0.01-0.062-0.052-0.12-0.064-0.187c-0.022-0.114 0.002-0.224 0-0.337 c-0.003-0.2 0.017-0.379-0.078-0.55c-0.38-0.688-1.236-0.929-1.975-0.789c-0.18 0.034-0.287 0.126-0.442 0.2 c-0.17 0.088-0.139 0.166-0.318 0.224c-0.081 0.026-0.216 0.124-0.215 0.224c0.001 0.1 0 0.1 0 0.2 c-0.021 0.011-0.021-0.005-0.03-0.025"/>
				<path fill="#FFFFFF" d="M46.458-10.431c0.018 0.1 0 0.127-0.026 0.19c-0.053 0.101-0.112 0.062-0.165 0.1 c-0.05 0.062-0.099 0.276-0.079 0.362c-0.169 0.058-0.009 0.227-0.015 0.35c-0.002 0.05-0.041 0.105-0.045 0.2 c-0.01 0.1 0 0.3 0.1 0.37c0.097 0.2 0.3 0.4 0.4 0.544c0.19 0.1 0.4 0.6 0.6 0.6 c0.177 0 0.384-0.104 0.543-0.143c0.18-0.043 0.4 0 0.571-0.053c0.222-0.079 0.127-0.337 0.288-0.45 c0.104-0.074 0.287-0.01 0.406-0.051c0.2-0.069 0.339-0.263 0.376-0.46c0.016-0.082 0.01-0.145 0.039-0.221 c0.039-0.103 0.111-0.16 0.09-0.293c-0.01-0.062-0.052-0.12-0.064-0.187c-0.022-0.114 0.002-0.224 0-0.337 c-0.003-0.2 0.017-0.379-0.078-0.55c-0.38-0.688-1.236-0.929-1.975-0.789c-0.18 0.034-0.287 0.126-0.442 0.2 c-0.17 0.088-0.139 0.166-0.318 0.224c-0.081 0.026-0.216 0.124-0.215 0.224c0.001 0.1 0 0.1 0 0.2 c-0.021 0.011-0.021-0.005-0.03-0.025"/>
				<path fill="#FFFFFF" d="M38.797-10.431c0.018 0.1 0 0.127-0.026 0.19c-0.053 0.101-0.112 0.062-0.165 0.1 c-0.05 0.062-0.099 0.276-0.079 0.362c-0.169 0.058-0.009 0.227-0.015 0.35c-0.002 0.05-0.041 0.105-0.045 0.2 c-0.01 0.1 0 0.3 0.1 0.37c0.097 0.2 0.3 0.4 0.4 0.544c0.19 0.1 0.4 0.6 0.6 0.6 c0.177 0 0.384-0.104 0.543-0.143c0.18-0.043 0.4 0 0.571-0.053c0.222-0.079 0.127-0.337 0.288-0.45 c0.104-0.074 0.287-0.01 0.406-0.051c0.2-0.069 0.339-0.263 0.376-0.46c0.016-0.082 0.01-0.145 0.039-0.221 c0.039-0.103 0.111-0.16 0.09-0.293c-0.01-0.062-0.052-0.12-0.064-0.187c-0.022-0.114 0.002-0.224 0-0.337 c-0.003-0.2 0.017-0.379-0.078-0.55c-0.38-0.688-1.236-0.929-1.975-0.789c-0.18 0.034-0.287 0.126-0.442 0.2 c-0.17 0.088-0.139 0.166-0.318 0.224c-0.081 0.026-0.216 0.124-0.215 0.224c0.001 0.1 0 0.1 0 0.2 c-0.021 0.011-0.021-0.005-0.03-0.025"/>
				<path fill="#FFFFFF" d="M31.137-10.431c0.018 0.1 0 0.127-0.026 0.19c-0.053 0.101-0.112 0.062-0.165 0.1 c-0.05 0.062-0.099 0.276-0.079 0.362c-0.169 0.058-0.009 0.227-0.015 0.35c-0.002 0.05-0.041 0.105-0.045 0.2 c-0.01 0.1 0 0.3 0.1 0.37c0.097 0.2 0.3 0.4 0.4 0.544c0.19 0.1 0.4 0.6 0.6 0.6 c0.177 0 0.384-0.104 0.543-0.143c0.18-0.043 0.4 0 0.571-0.053c0.222-0.079 0.127-0.337 0.288-0.45 c0.104-0.074 0.287-0.01 0.406-0.051c0.2-0.069 0.339-0.263 0.376-0.46c0.016-0.082 0.01-0.145 0.039-0.221 c0.039-0.103 0.111-0.16 0.09-0.293c-0.01-0.062-0.052-0.12-0.064-0.187c-0.022-0.114 0.002-0.224 0-0.337 c-0.003-0.2 0.017-0.379-0.078-0.55c-0.38-0.688-1.236-0.929-1.975-0.789c-0.18 0.034-0.287 0.126-0.442 0.2 c-0.17 0.088-0.139 0.166-0.318 0.224c-0.081 0.026-0.216 0.124-0.215 0.224c0.001 0.1 0 0.1 0 0.2 c-0.021 0.011-0.021-0.005-0.03-0.025"/>
				<path fill="#FFFFFF" d="M23.477-10.431c0.018 0.1 0 0.127-0.026 0.19c-0.053 0.101-0.112 0.062-0.165 0.1 c-0.05 0.062-0.099 0.276-0.079 0.362c-0.169 0.058-0.009 0.227-0.015 0.35c-0.002 0.05-0.041 0.105-0.045 0.2 c-0.01 0.1 0 0.3 0.1 0.37c0.097 0.2 0.3 0.4 0.4 0.544c0.19 0.1 0.4 0.6 0.6 0.6 c0.177 0 0.384-0.104 0.543-0.143c0.18-0.043 0.4 0 0.571-0.053c0.222-0.079 0.127-0.337 0.288-0.45 c0.104-0.074 0.287-0.01 0.406-0.051c0.2-0.069 0.339-0.263 0.376-0.46c0.016-0.082 0.01-0.145 0.039-0.221 c0.039-0.103 0.111-0.16 0.09-0.293c-0.01-0.062-0.052-0.12-0.064-0.187c-0.022-0.114 0.002-0.224 0-0.337 c-0.003-0.2 0.017-0.379-0.078-0.55c-0.38-0.688-1.236-0.929-1.975-0.789c-0.18 0.034-0.287 0.126-0.442 0.2 c-0.17 0.088-0.139 0.166-0.318 0.224c-0.081 0.026-0.216 0.124-0.215 0.224c0.001 0.1 0 0.1 0 0.2 c-0.021 0.011-0.021-0.005-0.03-0.025"/>
				<path fill="#FFFFFF" d="M15.816-10.431c0.018 0.1 0 0.127-0.026 0.19c-0.053 0.101-0.112 0.062-0.165 0.1 c-0.05 0.062-0.099 0.276-0.079 0.362c-0.169 0.058-0.009 0.227-0.015 0.35c-0.002 0.05-0.041 0.105-0.045 0.2 c-0.01 0.1 0 0.3 0.1 0.37c0.097 0.2 0.3 0.4 0.4 0.544c0.19 0.1 0.4 0.6 0.6 0.6 c0.177 0 0.384-0.104 0.543-0.143c0.18-0.043 0.4 0 0.571-0.053C17.933-7.969 17.839-8.227 18-8.34 c0.104-0.074 0.287-0.01 0.406-0.051c0.2-0.069 0.339-0.263 0.376-0.46c0.016-0.082 0.01-0.145 0.039-0.221 c0.039-0.103 0.111-0.16 0.09-0.293c-0.01-0.062-0.052-0.12-0.064-0.187c-0.022-0.114 0.002-0.224 0-0.337 c-0.003-0.2 0.017-0.379-0.078-0.55c-0.38-0.688-1.236-0.929-1.975-0.789c-0.18 0.034-0.287 0.126-0.442 0.2 c-0.17 0.088-0.139 0.166-0.318 0.224c-0.081 0.026-0.216 0.124-0.215 0.224c0.001 0.1 0 0.1 0 0.2 c-0.021 0.011-0.021-0.005-0.03-0.025"/>
				<path fill="#FFFFFF" d="M8.156-10.431c0.018 0.1 0 0.127-0.026 0.19c-0.053 0.101-0.112 0.062-0.165 0.1 C7.915-10.05 7.866-9.836 7.886-9.75C7.717-9.692 7.876-9.523 7.871-9.4C7.868-9.351 7.83-9.295 7.826-9.239 c-0.01 0.1 0 0.3 0.1 0.37c0.097 0.2 0.3 0.4 0.4 0.544c0.19 0.1 0.4 0.6 0.6 0.6 C9.114-7.652 9.321-7.799 9.48-7.837c0.18-0.043 0.4 0 0.571-0.053c0.222-0.079 0.127-0.337 0.288-0.45 c0.104-0.074 0.287-0.01 0.406-0.051c0.2-0.069 0.339-0.263 0.376-0.46c0.016-0.082 0.01-0.145 0.039-0.221 c0.039-0.103 0.111-0.16 0.09-0.293c-0.01-0.062-0.052-0.12-0.064-0.187c-0.022-0.114 0.002-0.224 0-0.337 c-0.003-0.2 0.017-0.379-0.078-0.55c-0.38-0.688-1.236-0.929-1.975-0.789c-0.18 0.034-0.287 0.126-0.442 0.2 c-0.17 0.088-0.139 0.166-0.318 0.224c-0.081 0.026-0.216 0.124-0.215 0.224c0.001 0.1 0 0.1 0 0.2 c-0.021 0.011-0.021-0.005-0.03-0.025"/>
				<path fill="#FFFFFF" d="M0.495-10.431c0.018 0.1 0 0.127-0.026 0.19c-0.053 0.101-0.112 0.062-0.165 0.1 C0.254-10.05 0.205-9.836 0.225-9.75C0.056-9.692 0.215-9.523 0.21-9.4c-0.002 0.05-0.041 0.105-0.045 0.2 c-0.01 0.1 0 0.3 0.1 0.37C0.33-8.671 0.501-8.456 0.668-8.325c0.19 0.1 0.4 0.6 0.6 0.6 C1.454-7.652 1.66-7.799 1.819-7.837C2-7.88 2.217-7.827 2.391-7.89c0.222-0.079 0.127-0.337 0.288-0.45 c0.104-0.074 0.287-0.01 0.406-0.051c0.2-0.069 0.339-0.263 0.376-0.46C3.477-8.933 3.471-8.995 3.5-9.071 c0.039-0.103 0.111-0.16 0.09-0.293c-0.01-0.062-0.052-0.12-0.064-0.187c-0.022-0.114 0.002-0.224 0-0.337 c-0.003-0.2 0.017-0.379-0.078-0.55c-0.38-0.688-1.236-0.929-1.975-0.789c-0.18 0.034-0.287 0.126-0.442 0.2 c-0.17 0.088-0.139 0.166-0.318 0.224c-0.081 0.026-0.216 0.124-0.215 0.224c0.001 0.1 0 0.1 0 0.2 c-0.021 0.011-0.021-0.005-0.03-0.025"/>
			</g>
		</g>
		<g>
			<path fill="#FFFFFF" d="M69.439-2.778c0.018 0.1 0 0.127-0.026 0.19C69.361-2.487 69.3-2.525 69.248-2.46 c-0.051 0.062-0.099 0.276-0.079 0.362C69-2.04 69.159-1.871 69.154-1.748c-0.002 0.05-0.041 0.105-0.045 0.2 c-0.01 0.1 0 0.3 0.1 0.37c0.097 0.2 0.3 0.4 0.4 0.544c0.19 0.1 0.4 0.6 0.6 0.6 C70.397 0 70.604-0.146 70.763-0.185c0.18-0.043 0.4 0 0.571-0.053c0.222-0.079 0.127-0.337 0.288-0.45 c0.104-0.074 0.287-0.01 0.406-0.051c0.2-0.07 0.339-0.263 0.376-0.46c0.016-0.082 0.01-0.145 0.039-0.221 c0.038-0.103 0.111-0.16 0.09-0.293c-0.01-0.062-0.051-0.12-0.064-0.187c-0.021-0.114 0.002-0.224 0-0.337 c-0.003-0.2 0.017-0.379-0.078-0.55c-0.38-0.688-1.236-0.929-1.975-0.789c-0.18 0.034-0.287 0.126-0.442 0.2 c-0.17 0.088-0.139 0.166-0.318 0.224c-0.081 0.026-0.215 0.124-0.215 0.224c0.002 0.1 0 0.1 0 0.2 c-0.021 0.011-0.021-0.005-0.03-0.025"/>
			<path fill="#FFFFFF" d="M61.778-2.778c0.018 0.1 0 0.127-0.026 0.19C61.7-2.487 61.64-2.525 61.587-2.46 c-0.05 0.062-0.099 0.276-0.079 0.362c-0.169 0.058-0.01 0.227-0.015 0.35c-0.002 0.05-0.041 0.105-0.045 0.2 c-0.01 0.1 0 0.3 0.1 0.37c0.097 0.2 0.3 0.4 0.4 0.544c0.19 0.1 0.4 0.6 0.6 0.6 C62.737 0 62.943-0.146 63.103-0.185c0.18-0.043 0.4 0 0.571-0.053c0.222-0.079 0.127-0.337 0.288-0.45 c0.104-0.074 0.287-0.01 0.406-0.051c0.2-0.069 0.339-0.263 0.376-0.46c0.016-0.082 0.01-0.145 0.039-0.221 c0.039-0.103 0.111-0.16 0.09-0.293c-0.01-0.062-0.052-0.12-0.064-0.187c-0.022-0.114 0.002-0.224 0-0.337 c-0.003-0.2 0.017-0.379-0.078-0.55c-0.38-0.688-1.236-0.929-1.975-0.789c-0.18 0.034-0.287 0.126-0.442 0.2 c-0.17 0.088-0.139 0.166-0.318 0.224C61.915-3.117 61.78-3.02 61.781-2.92c0.001 0.1 0 0.1 0 0.2 c-0.021 0.011-0.021-0.005-0.03-0.025"/>
			<path fill="#FFFFFF" d="M54.118-2.778c0.018 0.1 0 0.127-0.026 0.19C54.04-2.487 53.98-2.525 53.927-2.46 c-0.05 0.062-0.099 0.276-0.079 0.362c-0.169 0.058-0.01 0.227-0.015 0.35c-0.002 0.05-0.041 0.105-0.045 0.2 c-0.01 0.1 0 0.3 0.1 0.37c0.097 0.2 0.3 0.4 0.4 0.544c0.19 0.1 0.4 0.6 0.6 0.6 C55.077 0 55.283-0.146 55.442-0.185c0.18-0.043 0.4 0 0.571-0.053c0.222-0.079 0.127-0.337 0.288-0.45 c0.104-0.074 0.287-0.01 0.406-0.051c0.2-0.069 0.339-0.263 0.376-0.46c0.016-0.082 0.01-0.145 0.039-0.221 c0.039-0.103 0.111-0.16 0.09-0.293c-0.01-0.062-0.052-0.12-0.064-0.187c-0.022-0.114 0.002-0.224 0-0.337 c-0.003-0.2 0.017-0.379-0.078-0.55c-0.38-0.688-1.236-0.929-1.975-0.789c-0.18 0.034-0.287 0.126-0.442 0.2 c-0.17 0.088-0.139 0.166-0.318 0.224C54.255-3.117 54.12-3.02 54.121-2.92c0.001 0.1 0 0.1 0 0.2 c-0.021 0.011-0.021-0.005-0.03-0.025"/>
			<path fill="#FFFFFF" d="M46.458-2.778c0.018 0.1 0 0.127-0.026 0.19c-0.053 0.101-0.112 0.062-0.165 0.1 c-0.05 0.062-0.099 0.276-0.079 0.362c-0.169 0.058-0.01 0.227-0.015 0.35c-0.002 0.05-0.041 0.105-0.045 0.2 c-0.01 0.1 0 0.3 0.1 0.37c0.097 0.2 0.3 0.4 0.4 0.544c0.19 0.1 0.4 0.6 0.6 0.6 C47.416 0 47.623-0.146 47.782-0.185c0.18-0.043 0.4 0 0.571-0.053c0.222-0.079 0.127-0.337 0.288-0.45 c0.104-0.074 0.287-0.01 0.406-0.051c0.2-0.069 0.339-0.263 0.376-0.46c0.016-0.082 0.01-0.145 0.039-0.221 c0.039-0.103 0.111-0.16 0.09-0.293c-0.01-0.062-0.052-0.12-0.064-0.187c-0.022-0.114 0.002-0.224 0-0.337 c-0.003-0.2 0.017-0.379-0.078-0.55c-0.38-0.688-1.236-0.929-1.975-0.789c-0.18 0.034-0.287 0.126-0.442 0.2 c-0.17 0.088-0.139 0.166-0.318 0.224C46.594-3.117 46.459-3.02 46.46-2.92c0.001 0.1 0 0.1 0 0.2 c-0.021 0.011-0.021-0.005-0.03-0.025"/>
			<path fill="#FFFFFF" d="M38.797-2.778c0.018 0.1 0 0.127-0.026 0.19c-0.053 0.101-0.112 0.062-0.165 0.1 c-0.05 0.062-0.099 0.276-0.079 0.362c-0.169 0.058-0.01 0.227-0.015 0.35c-0.002 0.05-0.041 0.105-0.045 0.2 c-0.01 0.1 0 0.3 0.1 0.37c0.097 0.2 0.3 0.4 0.4 0.544c0.19 0.1 0.4 0.6 0.6 0.6 C39.756 0 39.962-0.146 40.122-0.185c0.18-0.043 0.4 0 0.571-0.053c0.222-0.079 0.127-0.337 0.288-0.45 c0.104-0.074 0.287-0.01 0.406-0.051c0.2-0.069 0.339-0.263 0.376-0.46c0.016-0.082 0.01-0.145 0.039-0.221 c0.039-0.103 0.111-0.16 0.09-0.293c-0.01-0.062-0.052-0.12-0.064-0.187c-0.022-0.114 0.002-0.224 0-0.337 c-0.003-0.2 0.017-0.379-0.078-0.55c-0.38-0.688-1.236-0.929-1.975-0.789c-0.18 0.034-0.287 0.126-0.442 0.2 c-0.17 0.088-0.139 0.166-0.318 0.224C38.934-3.117 38.799-3.02 38.8-2.92c0.001 0.1 0 0.1 0 0.2 c-0.021 0.011-0.021-0.005-0.03-0.025"/>
			<path fill="#FFFFFF" d="M31.137-2.778c0.018 0.1 0 0.127-0.026 0.19c-0.053 0.101-0.112 0.062-0.165 0.1 c-0.05 0.062-0.099 0.276-0.079 0.362c-0.169 0.058-0.01 0.227-0.015 0.35c-0.002 0.05-0.041 0.105-0.045 0.2 c-0.01 0.1 0 0.3 0.1 0.37c0.097 0.2 0.3 0.4 0.4 0.544c0.19 0.1 0.4 0.6 0.6 0.6 C32.095 0 32.302-0.146 32.461-0.185c0.18-0.043 0.4 0 0.571-0.053c0.222-0.079 0.127-0.337 0.288-0.45 c0.104-0.074 0.287-0.01 0.406-0.051c0.2-0.069 0.339-0.263 0.376-0.46c0.016-0.082 0.01-0.145 0.039-0.221 c0.039-0.103 0.111-0.16 0.09-0.293c-0.01-0.062-0.052-0.12-0.064-0.187c-0.022-0.114 0.002-0.224 0-0.337 c-0.003-0.2 0.017-0.379-0.078-0.55c-0.38-0.688-1.236-0.929-1.975-0.789c-0.18 0.034-0.287 0.126-0.442 0.2 c-0.17 0.088-0.139 0.166-0.318 0.224C31.273-3.117 31.139-3.02 31.14-2.92c0.001 0.1 0 0.1 0 0.2 c-0.021 0.011-0.021-0.005-0.03-0.025"/>
			<path fill="#FFFFFF" d="M23.477-2.778c0.018 0.1 0 0.127-0.026 0.19c-0.053 0.101-0.112 0.062-0.165 0.1 c-0.05 0.062-0.099 0.276-0.079 0.362c-0.169 0.058-0.01 0.227-0.015 0.35c-0.002 0.05-0.041 0.105-0.045 0.2 c-0.01 0.1 0 0.3 0.1 0.37c0.097 0.2 0.3 0.4 0.4 0.544c0.19 0.1 0.4 0.6 0.6 0.6 C24.435 0 24.642-0.146 24.801-0.185c0.18-0.043 0.4 0 0.571-0.053c0.222-0.079 0.127-0.337 0.288-0.45 c0.104-0.074 0.287-0.01 0.406-0.051c0.2-0.069 0.339-0.263 0.376-0.46c0.016-0.082 0.01-0.145 0.039-0.221 c0.039-0.103 0.111-0.16 0.09-0.293c-0.01-0.062-0.052-0.12-0.064-0.187c-0.022-0.114 0.002-0.224 0-0.337 c-0.003-0.2 0.017-0.379-0.078-0.55c-0.38-0.688-1.236-0.929-1.975-0.789c-0.18 0.034-0.287 0.126-0.442 0.2 c-0.17 0.088-0.139 0.166-0.318 0.224c-0.081 0.026-0.216 0.124-0.215 0.224c0.001 0.1 0 0.1 0 0.2 c-0.021 0.011-0.021-0.005-0.03-0.025"/>
			<path fill="#FFFFFF" d="M15.816-2.778c0.018 0.1 0 0.127-0.026 0.19c-0.053 0.101-0.112 0.062-0.165 0.1 c-0.05 0.062-0.099 0.276-0.079 0.362c-0.169 0.058-0.01 0.227-0.015 0.35c-0.002 0.05-0.041 0.105-0.045 0.2 c-0.01 0.1 0 0.3 0.1 0.37c0.097 0.2 0.3 0.4 0.4 0.544c0.19 0.1 0.4 0.6 0.6 0.6 C16.774 0 16.981-0.146 17.14-0.185c0.18-0.043 0.4 0 0.571-0.053c0.222-0.079 0.127-0.337 0.288-0.45 c0.104-0.074 0.287-0.01 0.406-0.051c0.2-0.069 0.339-0.263 0.376-0.46c0.016-0.082 0.01-0.145 0.039-0.221 c0.039-0.103 0.111-0.16 0.09-0.293c-0.01-0.062-0.052-0.12-0.064-0.187c-0.022-0.114 0.002-0.224 0-0.337 c-0.003-0.2 0.017-0.379-0.078-0.55c-0.38-0.688-1.236-0.929-1.975-0.789c-0.18 0.034-0.287 0.126-0.442 0.2 c-0.17 0.088-0.139 0.166-0.318 0.224c-0.081 0.026-0.216 0.124-0.215 0.224c0.001 0.1 0 0.1 0 0.2 C15.81-2.74 15.809-2.756 15.8-2.776"/>
			<path fill="#FFFFFF" d="M8.156-2.778c0.018 0.1 0 0.127-0.026 0.19C8.077-2.487 8.018-2.525 7.965-2.46 c-0.05 0.062-0.099 0.276-0.079 0.362c-0.169 0.058-0.01 0.227-0.015 0.35C7.868-1.698 7.83-1.643 7.826-1.587 c-0.01 0.1 0 0.3 0.1 0.37c0.097 0.2 0.3 0.4 0.4 0.544c0.19 0.1 0.4 0.6 0.6 0.6 C9.114 0 9.321-0.146 9.48-0.185c0.18-0.043 0.4 0 0.571-0.053c0.222-0.079 0.127-0.337 0.288-0.45 c0.104-0.074 0.287-0.01 0.406-0.051c0.2-0.069 0.339-0.263 0.376-0.46c0.016-0.082 0.01-0.145 0.039-0.221 c0.039-0.103 0.111-0.16 0.09-0.293c-0.01-0.062-0.052-0.12-0.064-0.187c-0.022-0.114 0.002-0.224 0-0.337 c-0.003-0.2 0.017-0.379-0.078-0.55c-0.38-0.688-1.236-0.929-1.975-0.789C8.954-3.54 8.847-3.448 8.692-3.367 c-0.17 0.088-0.139 0.166-0.318 0.224C8.292-3.117 8.158-3.02 8.159-2.92C8.16-2.805 8.164-2.869 8.17-2.751 C8.15-2.74 8.149-2.756 8.14-2.776"/>
			<path fill="#FFFFFF" d="M0.495-2.778c0.018 0.1 0 0.127-0.026 0.19C0.417-2.487 0.356-2.525 0.304-2.46 C0.253-2.397 0.205-2.184 0.225-2.098C0.056-2.04 0.215-1.871 0.21-1.748c-0.002 0.05-0.041 0.105-0.045 0.2 c-0.01 0.1 0 0.3 0.1 0.37C0.33-1.019 0.501-0.804 0.668-0.673c0.19 0.1 0.4 0.6 0.6 0.6 C1.454 0 1.66-0.146 1.819-0.185C2-0.228 2.217-0.175 2.391-0.237c0.222-0.079 0.127-0.337 0.288-0.45 c0.104-0.074 0.287-0.01 0.406-0.051c0.2-0.07 0.339-0.263 0.376-0.46C3.477-1.28 3.471-1.343 3.5-1.419 c0.038-0.103 0.111-0.16 0.09-0.293c-0.01-0.062-0.051-0.12-0.064-0.187c-0.021-0.114 0.002-0.224 0-0.337 c-0.003-0.2 0.017-0.379-0.078-0.55c-0.38-0.688-1.236-0.929-1.975-0.789C1.293-3.54 1.187-3.448 1.031-3.367 c-0.17 0.088-0.139 0.166-0.318 0.224C0.632-3.117 0.498-3.02 0.498-2.92C0.5-2.805 0.503-2.869 0.51-2.751 C0.489-2.74 0.488-2.756 0.479-2.776"/>
		</g>
	</g>
</pattern>
<g>
	<g>
		<g>
			<g>
				<g>
					<path fill="#E11A2C" d="M111.327 0.154v0.399c-1.765 0.128-1.765 1.055-1.765 2.546v3.4c0 1.6 0 2.364-0.473 3.2 c-0.636 1.163-2.072 2.072-4.235 2.072c-2.491 0-3.602-1.073-4.073-1.764c-0.601-0.89-0.601-1.728-0.601-3.764V3.189 c0-2.436-0.018-2.636-1.617-2.636H98.29V0.154h5.2v0.399c-1.8 0-1.854 0-1.854 2.601v3.182c0 1.7 0 2.7 0.5 3.5 c0.418 0.7 1.4 1.4 3.1 1.418c1.163 0 2.601-0.418 3.382-1.636c0.509-0.782 0.509-1.619 0.509-3.146v-3.49 c0-1.455 0-2.254-1.836-2.382V0.154H111.327z"/>
					<path fill="#E11A2C" d="M113.308 4.026c0.146 0.4 0.2 1.1 0.2 1.509c0.926-1.018 1.745-1.509 2.8-1.509 c1.672 0 2.3 1.2 2.3 2.382v2.691c0 2 0 2.1 1.2 2.091v0.4h-3.728v-0.4c1.256 0 1.256-0.109 1.256-2.091V6.753 c0-1.654-0.582-2.182-1.473-2.182c-1.037 0-1.71 0.873-2.327 1.563v2.964c0 2 0 2.1 1.2 2.091v0.4h-3.673v-0.4 c1.2 0 1.2-0.109 1.2-2.091V6.935c0-1.981 0-2.09-1.2-2.09v-0.4c0.746-0.109 1.691-0.292 2-0.418H113.308z"/>
					<path fill="#E11A2C" d="M123.179 9.808c0 1.2 0.1 1.4 1 1.382h0.272v0.4h-3.872v-0.4h0.308 c0.928 0 1.109-0.146 1.109-1.382V6.899c0-1.981-0.108-2-1.417-2v-0.4c0.545-0.018 1.654-0.255 2.418-0.473h0.181V9.808z"/>
					<path fill="#E11A2C" d="M128.578 11.88l-2.581-5.818c-0.473-1.055-0.654-1.309-1.327-1.345v-0.4h3.272v0.4 c-0.473 0-0.928 0-0.928 0.437c0 0.1 0 0.2 0.2 0.618l2.11 4.746l1.765-3.945c0.254-0.583 0.416-0.982 0.416-1.218 c0-0.545-0.563-0.618-0.89-0.637v-0.4h2.454v0.4c-0.763 0.055-1.055 0.728-1.619 1.963l-2.363 5.2H128.578z"/>
					<path fill="#E11A2C" d="M134.669 7.099c-0.019 0.164-0.037 0.418-0.037 0.545c0 2.3 0.7 3.8 2.5 3.8 c1.02 0 1.837-0.455 2.346-1.455h0.419c-0.454 1.2-1.528 1.927-3.001 1.927c-2.036 0-3.727-1.527-3.727-3.873 c0-2.254 1.473-3.981 3.655-3.981c2.054 0 3.1 1.3 3.1 3.073H134.669z M134.705 6.735h3.891 c-0.019-0.854-0.255-2.309-1.818-2.309C135.342 4.4 134.8 5.7 134.7 6.735z"/>
					<path fill="#E11A2C" d="M143.505 9.099c0 1.9 0 2.1 1.1 2.091h0.256v0.4h-3.855v-0.4c1.254 0 1.254-0.072 1.254-2.091 V7.044c0-2.018 0-2.091-1.254-2.091v-0.4c0.818-0.109 1.765-0.4 2.055-0.491l0.128-0.037c0.09 0.3 0.3 0.9 0.3 1.9 c0.564-1.345 1.872-1.909 2.8-1.909c0.945 0 1.4 0.7 1.4 1.109c0 0.327-0.237 0.654-0.618 0.7 c-0.401 0-0.602-0.273-0.71-0.582c-0.072-0.201-0.218-0.545-0.636-0.545c-0.727 0-2.145 0.873-2.145 2.727V9.099z"/>
					<path fill="#E11A2C" d="M148.285 9.426h0.345c0.183 0.9 0.8 2.1 2.5 2.054c1.508 0 1.691-0.926 1.691-1.29 c0-0.891-0.946-1.309-2.093-1.728c-1.673-0.618-2.418-1.145-2.418-2.418c0-0.927 0.692-2.018 2.328-2.018 c0.854 0 1.5 0.3 1.9 0.763c0.146-0.163 0.327-0.6 0.346-0.636h0.327v2.255h-0.327c-0.163-0.836-0.892-1.982-2.181-1.982 c-1.185 0-1.583 0.582-1.583 1.109c0 0.9 0.7 1.2 2 1.636c1.455 0.5 2.6 1.1 2.6 2.6 c0 1.236-0.891 2.145-2.545 2.145c-1.072 0-1.709-0.418-2.127-0.818c-0.183 0.201-0.346 0.582-0.383 0.746h-0.345V9.426z"/>
					<path fill="#E11A2C" d="M157.448 9.808c0 1.2 0.1 1.4 1 1.382h0.272v0.4h-3.873v-0.4h0.31 c0.927 0 1.108-0.146 1.108-1.382V6.899c0-1.981-0.108-2-1.418-2v-0.4c0.545-0.018 1.654-0.255 2.418-0.473h0.183V9.808z"/>
					<path fill="#E11A2C" d="M161.738 4.717v4.399c0 1 0 2.1 1.1 2.146c0.618 0 0.944-0.492 1.108-0.728l0.273 0.2 c-0.564 1.182-1.728 1.182-1.854 1.182c-0.51 0-0.909-0.109-1.201-0.345c-0.473-0.364-0.689-1.036-0.689-2.109V4.717h-1.055 v-0.4c0.798-0.036 1.762-0.563 2.036-2.272h0.29v2.272h2.199v0.4H161.738z"/>
					<path fill="#E11A2C" d="M171.174 5.898c0.127-0.291 0.256-0.562 0.256-0.708c0-0.381-0.656-0.473-0.983-0.473v-0.4h2.545v0.4 c-0.91 0.055-1.09 0.509-1.543 1.6l-3.238 7.819c-0.474 1.127-0.908 1.927-1.618 1.927c-0.29 0-0.563-0.183-0.563-0.528 c0-0.6 0.601-0.873 0.927-1.018c0.619-0.272 0.819-0.381 1.073-1.018l0.69-1.728l-2.729-5.854 c-0.417-0.891-0.562-1.181-1.416-1.2v-0.4h3.346v0.4c-0.454 0.037-0.892 0.055-0.892 0.364c0 0.1 0.2 0.6 0.3 0.9 l2 4.255L171.174 5.898z"/>
				</g>
				<circle fill="#E11A2C" cx="122.4" cy="1.7" r="0.8"/>
				<circle fill="#E11A2C" cx="156.7" cy="1.7" r="0.8"/>
			</g>
			<g>
				<path fill="#E11A2C" d="M2.392 1.127v8.145c0 1.2 0.3 1.9 2.1 1.928v0.399H0.01V11.2c1.982-0.092 1.945-0.909 1.945-1.928 V3.036c0-2.309-0.127-2.473-1.781-2.473v-0.4h3.271l6.819 9.054V2.291c0-0.964-0.127-1.709-2.055-1.727v-0.4h4.363v0.4 C10.81 0.7 10.7 1.3 10.7 2.418v9.454h-0.253L2.392 1.127z"/>
				<path fill="#E11A2C" d="M16.281 4.036c2.146 0 3.9 1.6 3.9 3.927c0 2.582-1.946 3.928-3.892 3.9 c-1.873 0-3.873-1.255-3.873-3.946C12.408 5.7 14.1 4 16.3 4.036z M16.281 11.454c1.672 0 2.418-1.146 2.418-3.436 c0-1.964-0.527-3.546-2.418-3.546c-1.836 0-2.399 1.545-2.399 3.528C13.882 10.3 14.6 11.5 16.3 11.454z"/>
				<path fill="#E11A2C" d="M23.408 9.108c0 1.9 0 2.1 1.1 2.091h0.255v0.399h-3.855V11.2c1.254 0 1.254-0.073 1.254-2.091 V7.054c0-2.018 0-2.09-1.254-2.09v-0.4c0.818-0.108 1.763-0.399 2.054-0.491l0.127-0.036c0.091 0.3 0.3 0.9 0.3 1.9 c0.563-1.345 1.873-1.908 2.799-1.908c0.946 0 1.4 0.7 1.4 1.109c0 0.328-0.236 0.654-0.618 0.7 c-0.4 0-0.601-0.272-0.71-0.581c-0.073-0.2-0.218-0.546-0.635-0.546c-0.728 0-2.146 0.873-2.146 2.727V9.108z"/>
				<path fill="#E11A2C" d="M30.461 4.727v4.4c0 1 0 2.1 1.1 2.145c0.618 0 0.945-0.491 1.109-0.728l0.272 0.2 c-0.563 1.183-1.728 1.183-1.854 1.183c-0.51 0-0.909-0.11-1.2-0.346c-0.474-0.364-0.691-1.037-0.691-2.109V4.727h-1.054v-0.4 c0.8-0.036 1.764-0.563 2.036-2.272h0.29v2.272h2.201v0.4H30.461z"/>
				<path fill="#E11A2C" d="M41.188 9.108c0 2 0 2.1 1.2 2.091v0.399h-3.764V11.2c1.254 0 1.254-0.092 1.254-2.091V6.763 c0-1.691-0.509-2.181-1.581-2.181c-0.837 0-1.636 0.854-2.218 1.6v2.927c0 1.9 0 2.1 1.1 2.091v0.399h-3.69V11.2 c1.273 0 1.273-0.073 1.273-2.091V2.472c0-1.272 0-1.69-1.2-1.69v-0.4c0.745 0 1.745-0.164 2.327-0.382h0.127v5.545 c0.908-0.963 1.709-1.509 2.654-1.509c1.618 0 2.4 0.9 2.4 2.508V9.108z"/>
				<path fill="#E11A2C" d="M44.224 7.108c-0.018 0.165-0.036 0.419-0.036 0.546c0 2.3 0.7 3.8 2.5 3.8 c1.019 0 1.837-0.455 2.346-1.454h0.418c-0.454 1.199-1.526 1.927-2.999 1.927c-2.036 0-3.728-1.528-3.728-3.873 c0-2.254 1.473-3.982 3.654-3.982c2.055 0 3.1 1.3 3.1 3.072H44.224z M44.261 6.745h3.89 c-0.018-0.854-0.254-2.309-1.818-2.309C44.896 4.4 44.4 5.7 44.3 6.745z"/>
				<path fill="#E11A2C" d="M58.865 9.436h0.346c0.182 0.9 0.8 2.1 2.5 2.053c1.51 0 1.69-0.927 1.69-1.289 c0-0.892-0.945-1.31-2.091-1.728c-1.673-0.618-2.419-1.146-2.419-2.418c0-0.927 0.691-2.018 2.328-2.018 c0.854 0 1.5 0.3 1.9 0.764c0.146-0.164 0.327-0.601 0.346-0.636h0.327v2.254h-0.327 c-0.164-0.836-0.892-1.981-2.182-1.981c-1.183 0-1.582 0.582-1.582 1.109c0 0.9 0.7 1.2 2 1.6 c1.454 0.5 2.6 1.1 2.6 2.564c0 1.235-0.891 2.145-2.545 2.145c-1.073 0-1.709-0.42-2.128-0.819 c-0.182 0.201-0.345 0.583-0.381 0.746h-0.346V9.436z"/>
				<path fill="#E11A2C" d="M67.592 4.727v4.4c0 1 0 2.1 1.1 2.145c0.617 0 0.944-0.491 1.109-0.728l0.272 0.2 c-0.564 1.183-1.728 1.183-1.855 1.183c-0.509 0-0.908-0.11-1.2-0.346c-0.472-0.364-0.69-1.037-0.69-2.109V4.727h-1.055v-0.4 c0.8-0.036 1.765-0.563 2.037-2.272h0.291v2.272h2.2v0.4H67.592z"/>
				<path fill="#E11A2C" d="M71.991 7.108c-0.019 0.165-0.037 0.419-0.037 0.546c0 2.3 0.7 3.8 2.5 3.8 c1.018 0 1.836-0.455 2.345-1.454h0.418c-0.453 1.199-1.526 1.927-3 1.927c-2.035 0-3.726-1.528-3.726-3.873 c0-2.254 1.472-3.982 3.652-3.982c2.056 0 3.1 1.3 3.1 3.072H71.991z M72.027 6.745h3.891 c-0.02-0.854-0.255-2.309-1.818-2.309C72.664 4.4 72.1 5.7 72 6.745z"/>
				<path fill="#E11A2C" d="M80.608 9.108c0 1.9 0 2.1 1.1 2.091h0.255v0.399h-3.855V11.2c1.256 0 1.256-0.073 1.256-2.091 V7.054c0-2.018 0-2.09-1.256-2.09v-0.4c0.818-0.108 1.764-0.399 2.055-0.491l0.127-0.036c0.092 0.3 0.3 0.9 0.3 1.9 c0.564-1.345 1.871-1.908 2.8-1.908c0.945 0 1.4 0.7 1.4 1.109c0 0.328-0.235 0.654-0.618 0.7 c-0.399 0-0.6-0.272-0.708-0.581c-0.073-0.2-0.22-0.546-0.637-0.546c-0.729 0-2.146 0.873-2.146 2.727V9.108z"/>
				<path fill="#E11A2C" d="M87.59 4.036c0.145 0.4 0.2 1.1 0.2 1.509c0.927-1.018 1.745-1.509 2.801-1.509 c1.671 0 2.3 1.2 2.3 2.381v2.691c0 2 0 2.1 1.2 2.091v0.399h-3.727V11.2c1.255 0 1.255-0.109 1.255-2.091V6.763 c0-1.654-0.584-2.181-1.473-2.181c-1.036 0-1.709 0.873-2.327 1.562v2.964c0 2 0 2.1 1.2 2.091v0.399h-3.674V11.2 c1.2 0 1.2-0.109 1.2-2.091V6.945c0-1.982 0-2.091-1.2-2.091v-0.4c0.747-0.109 1.691-0.291 2-0.418H87.59z"/>
				<g>
					<path fill="#E11A2C" d="M57.798 10.271c-0.146 0.854-0.518 0.905-0.735 0.905c-0.564 0-0.574-0.399-0.574-1.65V6.581 c0-1.072-0.139-2.545-2.646-2.545c-1.818 0-2.928 0.927-2.928 1.655c0 0.3 0.2 0.5 0.5 0.5 c0.473 0 0.654-0.346 0.764-0.745c0.127-0.491 0.399-1.037 1.563-1.037c1.363 0 1.5 0.9 1.5 1.945v0.455l-1.381 0.5 c-2.563 0.874-3.346 1.891-3.346 2.928c0 1 0.8 1.5 1.9 1.544c0.872 0 1.782-0.363 2.854-1.272 c0.091 0.4 0.3 1.3 1.4 1.272c1 0 1.437-0.69 1.473-1.509H57.798z M55.259 10.104c-0.73 0.633-1.72 1.136-2.393 1.1 c-0.771 0-1.146-0.559-1.146-1.23c0-1.005 0.949-1.918 2.491-2.421l1.048-0.334V10.104z"/>
				</g>
			</g>
		</g>
	</g>
</g>
</svg>
