<?xml version="1.0" encoding="utf-8"?>
<!-- Generator: Adobe Illustrator 23.0.3, SVG Export Plug-In . SVG Version: 6.00 Build 0)  -->
<svg version="1.1" xmlns="http://www.w3.org/2000/svg" xmlns:xlink="http://www.w3.org/1999/xlink" x="0px" y="0px"
	 viewBox="0 0 486 288" style="enable-background:new 0 0 486 288;" xml:space="preserve">
<style type="text/css">
	.st0{display:none;}
	.st1{fill:#010101;}
	.st2{fill:#DB192B;}
</style>
<g id="Layer_2" class="st0">
</g>
<g id="Layer_1">
	<g>
		<g>
			<path class="st1" d="M385.9,156.7l3.7-8.3c0.7-1.6,1-2,1.7-2.2l0-0.6l-3.9,0l0,0.6c1.3,0.3,1.4,0.9,0.8,2.3l-1.5,3.6l-1.9-4.2
				c-0.4-0.9-0.3-1.5,1-1.6l0-0.6l-5.2,0l0,0.6c0.6,0.2,0.9,0.4,1.4,1.5l3.3,7.1l-0.6,1.2c-0.3,0.7-0.6,1.2-0.9,1.5
				c-0.2-0.8-0.7-1.2-1.4-1.2c-0.7,0-1.3,0.5-1.3,1.4c0,0.9,0.8,1.6,1.6,1.6C384.2,159.4,385,158.8,385.9,156.7 M380.6,154.2
				l-0.3-0.6c-0.5,0.2-1,0.4-1.4,0.4c-0.9,0-1.2-0.5-1.2-1.1l0-6l2.5,0l0-1.1l-2.5,0l0-1.8l-0.4,0l-3.6,2.3l0,0.6l1.4,0l0,6.5
				c0,1.3,0.7,2,2.2,2C378.6,155.3,379.7,154.9,380.6,154.2 M373.1,154.5c-1.2-0.2-1.4-0.4-1.4-1.5l0-7.6l-1,0l-2.9,1.9l0,0.4l1.4,0
				l0,5.3c0,1.1-0.2,1.3-1.4,1.5l0,0.6l5.3,0L373.1,154.5z M370.3,143.9c0.8,0,1.5-0.7,1.5-1.5c0-0.8-0.6-1.4-1.4-1.4
				c-0.9,0-1.5,0.7-1.5,1.5C368.9,143.3,369.5,143.9,370.3,143.9 M366.8,152.2c0-1.8-1.5-2.4-3-2.9c-1.4-0.5-2.4-0.7-2.4-1.8
				c0-0.6,0.4-1.1,1.2-1.1c1,0,1.9,0.6,3,1.8l0.5-0.2l-0.8-2.5l-0.3,0l-0.4,0.3c-0.6-0.2-1.2-0.4-1.9-0.4c-2.1,0-3.5,1.2-3.5,3
				c0,1.8,1.5,2.4,3,2.8c1.4,0.5,2.4,0.7,2.4,1.8c0,0.7-0.5,1.2-1.4,1.2c-1.3,0-2.3-0.9-3.6-2.4l-0.5,0.2l0.8,3.1l0.3,0l0.6-0.4
				c0.7,0.3,1.4,0.5,2.2,0.5C365.2,155.3,366.8,154.1,366.8,152.2 M356.5,154.5c-1.3-0.2-1.5-0.5-1.5-1.7l0-4.1
				c0.4-0.7,0.8-1.2,1.2-1.6c0,0.8,0.5,1.3,1.2,1.3c0.7,0,1.3-0.5,1.3-1.6c0-0.9-0.5-1.4-1.4-1.4c-1,0-1.7,0.8-2.4,2l0-2l-0.9,0
				l-2.9,1.9l0,0.4l1.4,0l0,5.3c0,1.1-0.2,1.4-1.3,1.5l0,0.6l5.3,0L356.5,154.5z M344.1,149.1c0-1.6,0.7-2.6,2-2.6
				c0.9,0,1.5,0.7,1.7,1.9l-3.7,1.3C344.1,149.6,344.1,149.4,344.1,149.1 M350.3,153.4l-0.5-0.4c-0.5,0.6-1.3,1-2.3,1
				c-1.8,0-2.9-1.4-3.2-3.2l5.9-2c-0.1-2.1-1.7-3.2-3.6-3.2c-2.8,0-4.8,2.2-4.8,5c0,2.7,1.8,4.8,4.8,4.8
				C348.5,155.3,349.6,154.5,350.3,153.4 M339.9,148.5c0.7-1.6,1-2,1.7-2.2l0-0.6l-3.9,0l0,0.6c1.3,0.3,1.4,0.9,0.8,2.3l-1.5,3.6
				l-1.9-4.2c-0.4-0.9-0.3-1.5,1-1.6l0-0.6l-5.2,0l0,0.6c0.6,0.2,0.9,0.4,1.4,1.5l3.4,7.3l1,0L339.9,148.5z M330.9,154.6
				c-1.2-0.2-1.4-0.4-1.4-1.5l0-7.6l-1,0l-2.9,1.9l0,0.4l1.4,0l0,5.3c0,1.1-0.2,1.3-1.4,1.5l0,0.6l5.3,0L330.9,154.6z M328,144
				c0.8,0,1.5-0.7,1.5-1.5c0-0.8-0.6-1.4-1.4-1.4c-0.9,0-1.5,0.7-1.5,1.5C326.6,143.3,327.2,144,328,144 M318,154.6
				c-1.1-0.2-1.3-0.4-1.3-1.5l0-4.6c1-0.9,1.8-1.3,2.5-1.3c1,0,1.2,0.5,1.3,1.4l0,4.5c0,1.1-0.2,1.4-1.3,1.5l0,0.6l5.1,0l0-0.6
				c-1.1-0.2-1.3-0.4-1.3-1.5l0-4.7c0-1.6-0.7-2.7-2.7-2.7c-1.2,0-2.4,0.8-3.6,1.8l0-1.9l-0.9,0l-2.9,1.9l0,0.4l1.4,0l0,5.3
				c0,1.1-0.2,1.4-1.3,1.5l0,0.6l5.1,0L318,154.6z M296.4,143l0,5.9c0,3.8,2,6.5,7.1,6.5s7.1-2.7,7-6.5l0-4.8c0-2.3,0.6-2.9,1.8-3.2
				l0-0.6l-4.8,0l0,0.6c1.1,0.3,1.8,0.9,1.8,3.2l0,4.8c0,3.4-1.8,4.9-5.1,4.9c-3.3,0-5.1-1.5-5.1-4.9l0-6c0-1.5,0.4-1.8,1.7-1.9
				l0-0.7l-6,0l0,0.7C296,141.2,296.4,141.5,296.4,143"/>
			<path class="st1" d="M280.5,154.7c-1.1-0.2-1.3-0.4-1.3-1.5l0-4.6c1-0.9,1.8-1.3,2.5-1.3c1,0,1.2,0.5,1.3,1.4l0,4.5
				c0,1.1-0.2,1.4-1.3,1.5l0,0.6l5.1,0l0-0.6c-1.1-0.2-1.3-0.4-1.3-1.5l0-4.7c0-1.6-0.7-2.7-2.7-2.7c-1.2,0-2.4,0.8-3.6,1.8l0-1.9
				l-0.9,0l-2.9,1.9l0,0.4l1.4,0l0,5.3c0,1.1-0.2,1.4-1.3,1.5l0,0.6l5.1,0L280.5,154.7z M272.6,154.7c-1.3-0.2-1.5-0.5-1.5-1.7
				l0-4.1c0.4-0.7,0.8-1.2,1.2-1.6c0,0.8,0.5,1.3,1.2,1.3c0.7,0,1.3-0.5,1.3-1.6c0-0.9-0.5-1.4-1.4-1.4c-1,0-1.7,0.8-2.4,2l0-2
				l-0.9,0l-2.9,1.9l0,0.4l1.4,0l0,5.3c0,1.1-0.2,1.4-1.3,1.5l0,0.6l5.3,0L272.6,154.7z M260.2,149.3c0-1.6,0.7-2.6,2-2.6
				c0.9,0,1.5,0.7,1.7,1.9l-3.7,1.3C260.2,149.7,260.2,149.5,260.2,149.3 M266.4,153.5l-0.5-0.4c-0.5,0.6-1.3,1-2.3,1
				c-1.8,0-2.9-1.4-3.2-3.2l5.9-2c-0.1-2.1-1.7-3.2-3.6-3.2c-2.8,0-4.8,2.2-4.8,5c0,2.7,1.8,4.8,4.8,4.8
				C264.6,155.5,265.8,154.7,266.4,153.5 M257.3,154.4l-0.3-0.6c-0.5,0.2-1,0.4-1.4,0.4c-0.9,0-1.2-0.5-1.2-1.1l0-6l2.5,0l0-1.1
				l-2.5,0l0-1.8l-0.4,0l-3.6,2.3l0,0.6l1.4,0l0,6.5c0,1.3,0.7,2,2.2,2C255.2,155.5,256.3,155.1,257.3,154.4 M249.8,152.4
				c0-1.8-1.5-2.4-3-2.9c-1.4-0.5-2.4-0.7-2.4-1.8c0-0.6,0.4-1.1,1.2-1.1c1,0,1.9,0.6,3,1.8l0.5-0.2l-0.8-2.5l-0.3,0l-0.4,0.3
				c-0.6-0.2-1.2-0.4-1.9-0.4c-2.1,0-3.5,1.2-3.5,3c0,1.8,1.5,2.4,3,2.8c1.4,0.5,2.4,0.7,2.4,1.8c0,0.7-0.5,1.2-1.4,1.2
				c-1.3,0-2.3-0.9-3.6-2.4l-0.5,0.2l0.8,3.1l0.3,0l0.6-0.4c0.7,0.3,1.4,0.5,2.2,0.5C248.1,155.5,249.8,154.3,249.8,152.4
				 M234.5,152.8c0-1,0.5-1.5,2.8-2.1l0,2.9c-0.6,0.4-1,0.6-1.5,0.6C235,154.2,234.5,153.8,234.5,152.8 M238.9,155.5
				c0.9,0,1.8-0.4,2.4-0.8l-0.2-0.6c-1,0.2-1.3,0-1.3-0.6l0-5.3c0-1.6-0.7-2.4-2.9-2.4c-2.5,0-4.4,1.4-4.4,2.6
				c0,0.6,0.4,1.1,1.1,1.1c0.8,0,1.2-0.5,1.3-1.1c0.1-0.6-0.1-1.1-0.4-1.3c0.5-0.2,1-0.4,1.5-0.4c0.9,0,1.3,0.3,1.3,1.1l0,2
				c-3.5,0.9-5.2,1.7-5.2,3.5c0,1.4,0.9,2.2,2.4,2.2c0.9,0,2-0.4,2.9-1.1C237.6,155.1,238,155.5,238.9,155.5 M224.8,149.4
				c0-1.6,0.7-2.6,2-2.6c0.9,0,1.5,0.7,1.7,1.9l-3.7,1.3C224.8,149.8,224.8,149.6,224.8,149.4 M231,153.6l-0.5-0.4
				c-0.5,0.6-1.3,1-2.3,1c-1.8,0-2.9-1.4-3.2-3.2l5.9-2c-0.1-2.1-1.7-3.2-3.6-3.2c-2.8,0-4.8,2.2-4.8,5c0,2.7,1.8,4.8,4.8,4.8
				C229.2,155.6,230.3,154.7,231,153.6 M215.2,154.8c-1.1-0.2-1.3-0.4-1.3-1.5l0-4.6c1-0.9,1.7-1.3,2.5-1.3c1,0,1.2,0.5,1.3,1.4
				l0,4.5c0,1.1-0.2,1.4-1.3,1.5l0,0.6l5.1,0l0-0.6c-1.1-0.2-1.3-0.4-1.3-1.5l0-4.7c0-1.6-0.7-2.7-2.7-2.7c-1.2,0-2.4,0.7-3.6,1.7
				l0-7.9l-0.7,0l-3.2,2.1l0,0.4l1.4,0l0,11.1c0,1.1-0.2,1.4-1.3,1.5l0,0.6l5.1,0L215.2,154.8z M209.5,154.5l-0.3-0.6
				c-0.5,0.2-1,0.4-1.4,0.4c-0.9,0-1.2-0.5-1.2-1.1l0-6l2.5,0l0-1.1l-2.5,0l0-1.8l-0.4,0l-3.6,2.3l0,0.6l1.4,0l0,6.5
				c0,1.3,0.7,2,2.2,2C207.5,155.6,208.6,155.2,209.5,154.5 M199.8,154.8c-1.3-0.2-1.5-0.5-1.5-1.7l0-4.1c0.4-0.7,0.8-1.2,1.2-1.6
				c0,0.8,0.5,1.3,1.2,1.3c0.7,0,1.3-0.5,1.3-1.6c0-0.9-0.5-1.4-1.4-1.4c-1,0-1.7,0.8-2.4,2l0-2l-0.9,0l-2.9,1.9l0,0.4l1.4,0l0,5.3
				c0,1.1-0.2,1.4-1.3,1.5l0,0.6l5.3,0L199.8,154.8z M185.5,149.7c0-1.8,0.8-2.9,2.4-2.9c2.1,0,2.7,2.6,2.7,4.9
				c0,1.8-0.8,2.9-2.4,2.9C186.1,154.7,185.5,152.1,185.5,149.7 M193.1,150.6c0-2.6-1.8-4.8-4.9-4.8c-3.2,0-5.1,2.3-5.1,5
				c0,2.6,1.8,4.8,4.9,4.8C191.2,155.6,193.1,153.3,193.1,150.6 M180.2,144.4c0-2.3,0.6-2.9,1.8-3.2l0-0.6l-4.8,0l0,0.6
				c1.1,0.3,1.8,0.9,1.8,3.2l0,7l-10.1-10.2c-0.6-0.6-0.8-0.6-1.1-0.6l-3.7,0l0,0.6c0.8,0.1,1.3,0.4,2.2,1.3
				c0.3,0.3,0.6,0.6,0.6,1.2l0,7.9c0,2.3-0.6,2.9-1.8,3.2l0,0.6l4.8,0l0-0.6c-1.1-0.3-1.8-0.9-1.8-3.2l0-7.5l11.4,11.4l0.8,0
				L180.2,144.4z"/>
		</g>
		<g>
			<path class="st1" d="M170.5,188.1h9.5v4.8h-15.1v-22.4h5.6V188.1z"/>
			<path class="st1" d="M187.4,170.6c0,1.6-1.4,2.9-3.1,2.9c-1.6,0-3.1-1.3-3.1-2.9s1.4-2.9,3.1-2.9
				C185.9,167.7,187.4,169,187.4,170.6z M187,192.9h-5.4v-17.1h5.4V192.9z"/>
			<path class="st1" d="M195.5,177.3c1.2-1.3,2.8-2,4.6-2c4.5,0,7.6,3.7,7.6,9.1c0,5.4-3.2,9-7.6,9c-2.2,0-3.7-0.8-4.8-2v1.6h-5.2
				v-22.4h5.4V177.3z M195.1,184.4c0,3.3,1.4,4.8,3.4,4.8c2.2,0,3.5-1.7,3.5-4.8c0-3.3-1.3-4.9-3.4-4.9
				C196.4,179.5,195.1,181,195.1,184.4z"/>
			<path class="st1" d="M221.1,175.4v5.1c-0.6,0-0.8,0-1.1,0c-2.6,0-4.6,1.1-4.6,5.8v6.7H210v-17.1h5.2v2.8c1.2-2.4,2.8-3.2,4.6-3.2
				C220.2,175.3,220.6,175.3,221.1,175.4z"/>
			<path class="st1" d="M237.6,180.7v8.4c0,1.4,0.1,2.6,0.6,3.8H233c-0.3-0.5-0.5-1.1-0.6-1.7c-1.2,1.6-2.9,2.1-4.9,2.1
				c-3.6,0-5.7-2.2-5.7-5.2c0-3.3,2-5.2,7.2-5.9l3.2-0.4V181c0-1.5-0.4-2.1-2.1-2.1c-1.6,0-2.3,0.6-2.3,2h-5.3
				c0.1-3.7,2.9-5.6,7.7-5.6C235.5,175.3,237.6,177.3,237.6,180.7z M230.2,185.3c-2.2,0.3-3,1-3,2.2c0,1.1,0.7,1.8,2,1.8
				c1.7,0,3-1.2,3-2.8V185L230.2,185.3z"/>
			<path class="st1" d="M251.7,175.4v5.1c-0.6,0-0.8,0-1.1,0c-2.6,0-4.6,1.1-4.6,5.8v6.7h-5.4v-17.1h5.2v2.8
				c1.2-2.4,2.8-3.2,4.6-3.2C250.9,175.3,251.3,175.3,251.7,175.4z"/>
			<path class="st1" d="M264.7,193.3c-1,3.5-2.5,5.8-7.2,5.8c-1.1,0-1.9-0.1-2.6-0.3v-3.6c0.9,0.1,1.2,0.1,1.6,0.1
				c2.3,0,2.9-0.4,3.2-2.3h-2.1l-5.5-17.1h6.1l2.9,13.4l2.7-13.4h5.9L264.7,193.3z"/>
		</g>
		<path class="st2" d="M146.5,133c0-13.7,4.6-18.2,13.8-21.7V109H130v2.3c9.2,3.5,13.8,8,13.8,21.7v40.3l-64.1-61.2
			c-2.9-2.7-3.7-3-5.6-3H50.1v2.3c5.3,0.6,8.4,2,16.1,9.5l2.9,2.8v45.9c0,13.7-4.6,18.2-13.8,21.7v2.3h30.3v-2.3
			c-9.2-3.5-13.8-8-13.8-21.7v-43.8l72.5,68.3h2.3V133z"/>
	</g>
</g>
</svg>
