<?xml version="1.0" encoding="utf-8"?>
<!-- Generator: Adobe Illustrator 23.0.4, SVG Export Plug-In . SVG Version: 6.00 Build 0)  -->
<svg version="1.1" id="Layer_1" xmlns="http://www.w3.org/2000/svg" xmlns:xlink="http://www.w3.org/1999/xlink" x="0px" y="0px"
	 viewBox="0 0 352.7 104.6" style="enable-background:new 0 0 352.7 104.6;" xml:space="preserve">
<style type="text/css">
	.st0{fill:#010101;}
	.st1{fill:#DB192B;}
</style>
<g>
	<g>
		<g>
			<path class="st0" d="M338.6,54.7l3.7-8.3c0.7-1.6,1-2,1.7-2.2v-0.6h-3.9v0.6c1.3,0.3,1.4,0.9,0.8,2.3l-1.5,3.6l-1.9-4.2
				c-0.4-0.9-0.3-1.5,1-1.6v-0.6h-5.2v0.6c0.6,0.2,0.9,0.4,1.4,1.5l3.3,7.1l-0.6,1.2c-0.3,0.7-0.6,1.2-0.9,1.5
				c-0.2-0.8-0.7-1.2-1.4-1.2c-0.7,0-1.3,0.5-1.3,1.4s0.8,1.6,1.6,1.6C336.9,57.4,337.7,56.8,338.6,54.7 M333.3,52.2l-0.3-0.6
				c-0.5,0.2-1,0.4-1.4,0.4c-0.9,0-1.2-0.5-1.2-1.1v-6h2.5v-1.1h-2.5V42H330l-3.6,2.3v0.6h1.4v6.5c0,1.3,0.7,2,2.2,2
				C331.3,53.3,332.4,52.9,333.3,52.2 M325.8,52.5c-1.2-0.2-1.4-0.4-1.4-1.5v-7.6h-1l-2.9,1.9v0.4h1.4V51c0,1.1-0.2,1.3-1.4,1.5v0.6
				h5.3V52.5z M323,41.9c0.8,0,1.5-0.7,1.5-1.5s-0.6-1.4-1.4-1.4c-0.9,0-1.5,0.7-1.5,1.5S322.2,41.9,323,41.9 M319.5,50.2
				c0-1.8-1.5-2.4-3-2.9c-1.4-0.5-2.4-0.7-2.4-1.8c0-0.6,0.4-1.1,1.2-1.1c1,0,1.9,0.6,3,1.8l0.5-0.2l-0.8-2.5h-0.3l-0.4,0.3
				c-0.6-0.2-1.2-0.4-1.9-0.4c-2.1,0-3.5,1.2-3.5,3s1.5,2.4,3,2.8c1.4,0.5,2.4,0.7,2.4,1.8c0,0.7-0.5,1.2-1.4,1.2
				c-1.3,0-2.3-0.9-3.6-2.4l-0.5,0.2l0.8,3.1h0.3l0.6-0.4c0.7,0.3,1.4,0.5,2.2,0.5C317.9,53.3,319.5,52.1,319.5,50.2 M309.2,52.5
				c-1.3-0.2-1.5-0.5-1.5-1.7v-4.1c0.4-0.7,0.8-1.2,1.2-1.6c0,0.8,0.5,1.3,1.2,1.3s1.3-0.5,1.3-1.6c0-0.9-0.5-1.4-1.4-1.4
				c-1,0-1.7,0.8-2.4,2v-2h-0.9l-2.9,1.9v0.4h1.4V51c0,1.1-0.2,1.4-1.3,1.5v0.6h5.3L309.2,52.5z M296.8,47.1c0-1.6,0.7-2.6,2-2.6
				c0.9,0,1.5,0.7,1.7,1.9l-3.7,1.3C296.8,47.6,296.8,47.4,296.8,47.1 M303,51.4l-0.5-0.4c-0.5,0.6-1.3,1-2.3,1
				c-1.8,0-2.9-1.4-3.2-3.2l5.9-2c-0.1-2.1-1.7-3.2-3.6-3.2c-2.8,0-4.8,2.2-4.8,5c0,2.7,1.8,4.8,4.8,4.8
				C301.2,53.3,302.3,52.5,303,51.4 M292.6,46.5c0.7-1.6,1-2,1.7-2.2v-0.6h-3.9v0.6c1.3,0.3,1.4,0.9,0.8,2.3l-1.5,3.6l-1.9-4.2
				c-0.4-0.9-0.3-1.5,1-1.6v-0.6h-5.2v0.6c0.6,0.2,0.9,0.4,1.4,1.5l3.4,7.3h1L292.6,46.5z M283.6,52.6c-1.2-0.2-1.4-0.4-1.4-1.5
				v-7.6h-1l-2.9,1.9v0.4h1.4v5.3c0,1.1-0.2,1.3-1.4,1.5v0.6h5.3V52.6z M280.7,42c0.8,0,1.5-0.7,1.5-1.5s-0.6-1.4-1.4-1.4
				c-0.9,0-1.5,0.7-1.5,1.5C279.3,41.3,279.9,42,280.7,42 M270.7,52.6c-1.1-0.2-1.3-0.4-1.3-1.5v-4.6c1-0.9,1.8-1.3,2.5-1.3
				c1,0,1.2,0.5,1.3,1.4v4.5c0,1.1-0.2,1.4-1.3,1.5v0.6h5.1v-0.6c-1.1-0.2-1.3-0.4-1.3-1.5v-4.7c0-1.6-0.7-2.7-2.7-2.7
				c-1.2,0-2.4,0.8-3.6,1.8v-1.9h-0.9l-2.9,1.9v0.4h1.4v5.3c0,1.1-0.2,1.4-1.3,1.5v0.6h5.1L270.7,52.6z M249.1,41v5.9
				c0,3.8,2,6.5,7.1,6.5c5.1,0,7.1-2.7,7-6.5v-4.8c0-2.3,0.6-2.9,1.8-3.2v-0.6h-4.8v0.6c1.1,0.3,1.8,0.9,1.8,3.2v4.8
				c0,3.4-1.8,4.9-5.1,4.9c-3.3,0-5.1-1.5-5.1-4.9v-6c0-1.5,0.4-1.8,1.7-1.9v-0.7h-6V39C248.7,39.2,249.1,39.5,249.1,41"/>
			<path class="st0" d="M233.2,52.7c-1.1-0.2-1.3-0.4-1.3-1.5v-4.6c1-0.9,1.8-1.3,2.5-1.3c1,0,1.2,0.5,1.3,1.4v4.5
				c0,1.1-0.2,1.4-1.3,1.5v0.6h5.1v-0.6c-1.1-0.2-1.3-0.4-1.3-1.5v-4.7c0-1.6-0.7-2.7-2.7-2.7c-1.2,0-2.4,0.8-3.6,1.8v-1.9H231
				l-2.9,1.9V46h1.4v5.3c0,1.1-0.2,1.4-1.3,1.5v0.6h5.1L233.2,52.7z M225.3,52.7c-1.3-0.2-1.5-0.5-1.5-1.7v-4.1
				c0.4-0.7,0.8-1.2,1.2-1.6c0,0.8,0.5,1.3,1.2,1.3s1.3-0.5,1.3-1.6c0-0.9-0.5-1.4-1.4-1.4c-1,0-1.7,0.8-2.4,2v-2h-0.9l-2.9,1.9v0.4
				h1.4v5.3c0,1.1-0.2,1.4-1.3,1.5v0.6h5.3V52.7z M212.9,47.3c0-1.6,0.7-2.6,2-2.6c0.9,0,1.5,0.7,1.7,1.9l-3.7,1.3
				C212.9,47.7,212.9,47.5,212.9,47.3 M219.1,51.5l-0.5-0.4c-0.5,0.6-1.3,1-2.3,1c-1.8,0-2.9-1.4-3.2-3.2l5.9-2
				c-0.1-2.1-1.7-3.2-3.6-3.2c-2.8,0-4.8,2.2-4.8,5c0,2.7,1.8,4.8,4.8,4.8C217.3,53.5,218.5,52.7,219.1,51.5 M210,52.4l-0.3-0.6
				c-0.5,0.2-1,0.4-1.4,0.4c-0.9,0-1.2-0.5-1.2-1.1v-6h2.5V44h-2.5v-1.8h-0.4l-3.6,2.3v0.6h1.4v6.5c0,1.3,0.7,2,2.2,2
				C207.9,53.5,209,53.1,210,52.4 M202.5,50.4c0-1.8-1.5-2.4-3-2.9c-1.4-0.5-2.4-0.7-2.4-1.8c0-0.6,0.4-1.1,1.2-1.1
				c1,0,1.9,0.6,3,1.8l0.5-0.2l-0.8-2.5h-0.3l-0.4,0.3c-0.6-0.2-1.2-0.4-1.9-0.4c-2.1,0-3.5,1.2-3.5,3s1.5,2.4,3,2.8
				c1.4,0.5,2.4,0.7,2.4,1.8c0,0.7-0.5,1.2-1.4,1.2c-1.3,0-2.3-0.9-3.6-2.4l-0.5,0.2l0.8,3.1h0.3l0.6-0.4c0.7,0.3,1.4,0.5,2.2,0.5
				C200.8,53.5,202.5,52.3,202.5,50.4 M187.2,50.8c0-1,0.5-1.5,2.8-2.1v2.9c-0.6,0.4-1,0.6-1.5,0.6
				C187.7,52.2,187.2,51.8,187.2,50.8 M191.6,53.5c0.9,0,1.8-0.4,2.4-0.8l-0.2-0.6c-1,0.2-1.3,0-1.3-0.6v-5.3c0-1.6-0.7-2.4-2.9-2.4
				c-2.5,0-4.4,1.4-4.4,2.6c0,0.6,0.4,1.1,1.1,1.1c0.8,0,1.2-0.5,1.3-1.1s-0.1-1.1-0.4-1.3c0.5-0.2,1-0.4,1.5-0.4
				c0.9,0,1.3,0.3,1.3,1.1v2c-3.5,0.9-5.2,1.7-5.2,3.5c0,1.4,0.9,2.2,2.4,2.2c0.9,0,2-0.4,2.9-1.1C190.3,53.1,190.7,53.5,191.6,53.5
				 M177.5,47.4c0-1.6,0.7-2.6,2-2.6c0.9,0,1.5,0.7,1.7,1.9l-3.7,1.3C177.5,47.8,177.5,47.6,177.5,47.4 M183.7,51.6l-0.5-0.4
				c-0.5,0.6-1.3,1-2.3,1c-1.8,0-2.9-1.4-3.2-3.2l5.9-2c-0.1-2.1-1.7-3.2-3.6-3.2c-2.8,0-4.8,2.2-4.8,5c0,2.7,1.8,4.8,4.8,4.8
				C181.9,53.6,183,52.7,183.7,51.6 M167.9,52.8c-1.1-0.2-1.3-0.4-1.3-1.5v-4.6c1-0.9,1.7-1.3,2.5-1.3c1,0,1.2,0.5,1.3,1.4v4.5
				c0,1.1-0.2,1.4-1.3,1.5v0.6h5.1v-0.6c-1.1-0.2-1.3-0.4-1.3-1.5v-4.7c0-1.6-0.7-2.7-2.7-2.7c-1.2,0-2.4,0.7-3.6,1.7v-7.9h-0.7
				l-3.2,2.1v0.4h1.4v11.1c0,1.1-0.2,1.4-1.3,1.5v0.6h5.1V52.8z M162.2,52.5l-0.3-0.6c-0.5,0.2-1,0.4-1.4,0.4
				c-0.9,0-1.2-0.5-1.2-1.1v-6h2.5v-1.1h-2.5v-1.8h-0.4l-3.6,2.3v0.6h1.4v6.5c0,1.3,0.7,2,2.2,2C160.2,53.6,161.3,53.2,162.2,52.5
				 M152.5,52.8c-1.3-0.2-1.5-0.5-1.5-1.7V47c0.4-0.7,0.8-1.2,1.2-1.6c0,0.8,0.5,1.3,1.2,1.3s1.3-0.5,1.3-1.6c0-0.9-0.5-1.4-1.4-1.4
				c-1,0-1.7,0.8-2.4,2v-2H150l-2.9,1.9V46h1.4v5.3c0,1.1-0.2,1.4-1.3,1.5v0.6h5.3L152.5,52.8L152.5,52.8z M138.2,47.7
				c0-1.8,0.8-2.9,2.4-2.9c2.1,0,2.7,2.6,2.7,4.9c0,1.8-0.8,2.9-2.4,2.9C138.8,52.7,138.2,50.1,138.2,47.7 M145.8,48.6
				c0-2.6-1.8-4.8-4.9-4.8c-3.2,0-5.1,2.3-5.1,5c0,2.6,1.8,4.8,4.9,4.8C143.9,53.6,145.8,51.3,145.8,48.6 M132.9,42.4
				c0-2.3,0.6-2.9,1.8-3.2v-0.6h-4.8v0.6c1.1,0.3,1.8,0.9,1.8,3.2v7l-10.1-10.2c-0.6-0.6-0.8-0.6-1.1-0.6h-3.7v0.6
				c0.8,0.1,1.3,0.4,2.2,1.3c0.3,0.3,0.6,0.6,0.6,1.2v7.9c0,2.3-0.6,2.9-1.8,3.2v0.6h4.8v-0.6c-1.1-0.3-1.8-0.9-1.8-3.2v-7.5
				l11.4,11.4h0.8L132.9,42.4z"/>
		</g>
		<g>
			<path class="st0" d="M123.2,86.1h9.5v4.8h-15.1V68.5h5.6C123.2,68.5,123.2,86.1,123.2,86.1z"/>
			<path class="st0" d="M140.1,68.6c0,1.6-1.4,2.9-3.1,2.9c-1.6,0-3.1-1.3-3.1-2.9s1.4-2.9,3.1-2.9C138.6,65.7,140.1,67,140.1,68.6z
				 M139.7,90.9h-5.4V73.8h5.4V90.9z"/>
			<path class="st0" d="M148.2,75.3c1.2-1.3,2.8-2,4.6-2c4.5,0,7.6,3.7,7.6,9.1s-3.2,9-7.6,9c-2.2,0-3.7-0.8-4.8-2V91h-5.2V68.6h5.4
				V75.3z M147.8,82.4c0,3.3,1.4,4.8,3.4,4.8c2.2,0,3.5-1.7,3.5-4.8c0-3.3-1.3-4.9-3.4-4.9C149.1,77.5,147.8,79,147.8,82.4z"/>
			<path class="st0" d="M173.8,73.4v5.1c-0.6,0-0.8,0-1.1,0c-2.6,0-4.6,1.1-4.6,5.8V91h-5.4V73.9h5.2v2.8c1.2-2.4,2.8-3.2,4.6-3.2
				C172.9,73.3,173.3,73.3,173.8,73.4z"/>
			<path class="st0" d="M190.3,78.7v8.4c0,1.4,0.1,2.6,0.6,3.8h-5.2c-0.3-0.5-0.5-1.1-0.6-1.7c-1.2,1.6-2.9,2.1-4.9,2.1
				c-3.6,0-5.7-2.2-5.7-5.2c0-3.3,2-5.2,7.2-5.9l3.2-0.4V79c0-1.5-0.4-2.1-2.1-2.1c-1.6,0-2.3,0.6-2.3,2h-5.3
				c0.1-3.7,2.9-5.6,7.7-5.6C188.2,73.3,190.3,75.3,190.3,78.7z M182.9,83.3c-2.2,0.3-3,1-3,2.2c0,1.1,0.7,1.8,2,1.8
				c1.7,0,3-1.2,3-2.8V83L182.9,83.3z"/>
			<path class="st0" d="M204.4,73.4v5.1c-0.6,0-0.8,0-1.1,0c-2.6,0-4.6,1.1-4.6,5.8V91h-5.4V73.9h5.2v2.8c1.2-2.4,2.8-3.2,4.6-3.2
				C203.6,73.3,204,73.3,204.4,73.4z"/>
			<path class="st0" d="M217.4,91.3c-1,3.5-2.5,5.8-7.2,5.8c-1.1,0-1.9-0.1-2.6-0.3v-3.6c0.9,0.1,1.2,0.1,1.6,0.1
				c2.3,0,2.9-0.4,3.2-2.3h-2.1l-5.5-17.1h6.1l2.9,13.4l2.7-13.4h5.9L217.4,91.3z"/>
		</g>
		<path class="st1" d="M99.2,31c0-13.7,4.6-18.2,13.8-21.7V7H82.7v2.3c9.2,3.5,13.8,8,13.8,21.7v40.3L32.4,10.1
			c-2.9-2.7-3.7-3-5.6-3h-24v2.3c5.3,0.6,8.4,2,16.1,9.5l2.9,2.8v45.9c0,13.7-4.6,18.2-13.8,21.7v2.3h30.3v-2.3
			c-9.2-3.5-13.8-8-13.8-21.7V23.8L97,92.1h2.3L99.2,31L99.2,31z"/>
	</g>
</g>
</svg>
